<?xml version="1.0" encoding="UTF-8" standalone="no"?>
<!-- Created with Inkscape (http://www.inkscape.org/) -->

<svg
   width="20in"
   height="12in"
   viewBox="0 0 508.00001 304.8"
   version="1.1"
   id="svg5"
   inkscape:version="1.1 (c68e22c387, 2021-05-23)"
   sodipodi:docname="C-prompt.svg"
   xmlns:inkscape="http://www.inkscape.org/namespaces/inkscape"
   xmlns:sodipodi="http://sodipodi.sourceforge.net/DTD/sodipodi-0.dtd"
   xmlns="http://www.w3.org/2000/svg"
   xmlns:svg="http://www.w3.org/2000/svg">
  <sodipodi:namedview
     id="namedview7"
     pagecolor="#ffffff"
     bordercolor="#cccccc"
     borderopacity="1"
     inkscape:pageshadow="0"
     inkscape:pageopacity="0"
     inkscape:pagecheckerboard="true"
     inkscape:document-units="in"
     showgrid="false"
     units="in"
     inkscape:zoom="1.5427083"
     inkscape:cx="289.42606"
     inkscape:cy="227.19784"
     inkscape:window-width="2880"
     inkscape:window-height="1620"
     inkscape:window-x="114"
     inkscape:window-y="114"
     inkscape:window-maximized="0"
     inkscape:current-layer="layer1" />
  <defs
     id="defs2" />
  <g
     inkscape:label="Layer 1"
     inkscape:groupmode="layer"
     id="layer1">
    <g
       aria-label="C:\&gt;"
       id="text1153"
       style="font-size:60.0556px;line-height:1.25;font-family:Montserrat;-inkscape-font-specification:'Montserrat, Normal';letter-spacing:0px;word-spacing:0px;stroke-width:0.264583"
       transform="translate(-73.686335,-130.3445)">
      <path
         d="m 96.447407,175.01798 c 7.326783,0 13.392393,-2.64244 17.356063,-7.50695 l -6.24578,-5.76533 c -2.82261,3.30306 -6.3659,4.98461 -10.569783,4.98461 -7.867283,0 -13.452454,-5.52511 -13.452454,-13.45245 0,-7.92734 5.585171,-13.45246 13.452454,-13.45246 4.203883,0 7.747173,1.68156 10.569783,4.92456 l 6.24578,-5.76533 c -3.96367,-4.80445 -10.02928,-7.4469 -17.296008,-7.4469 -13.09212,0 -22.821127,9.0684 -22.821127,21.74013 0,12.67173 9.729007,21.74012 22.761072,21.74012 z"
         id="path1235"
         sodipodi:nodetypes="sccsssccsss" />
      <path
         d="m 122.75166,153.2178 c 3.24301,0 5.8254,-2.46228 5.8254,-5.88545 0,-3.48322 -2.58239,-5.76533 -5.8254,-5.76533 -3.243,0 -5.82539,2.28211 -5.82539,5.76533 0,3.42317 2.58239,5.88545 5.82539,5.88545 z m 0,21.55996 c 3.24301,0 5.8254,-2.46228 5.8254,-5.88545 0,-3.48322 -2.58239,-5.76533 -5.8254,-5.76533 -3.243,0 -5.82539,2.28211 -5.82539,5.76533 0,3.42317 2.58239,5.88545 5.82539,5.88545 z"
         id="path1237"
         sodipodi:nodetypes="ssssssssss" />
      <path
         id="path1239"
         style="stroke-width:0.999999"
         d="m 484.01953,492.64062 44.87872,174.36719 h 31.54882 L 515.57031,492.64062 Z"
         transform="scale(0.26458334)"
         sodipodi:nodetypes="ccccc" />
      <path
         d="m 149.59102,138.50418 v 7.44689 l 19.99852,7.32679 -19.99852,7.26673 v 7.50695 l 28.58647,-10.87007 v -7.80723 z"
         id="path1241"
         sodipodi:nodetypes="cccccccc" />
    </g>
  </g>
</svg>
