<?xml version="1.0" encoding="UTF-8" standalone="no"?>
<!-- Created with Inkscape (http://www.inkscape.org/) -->

<svg
   xmlns:dc="http://purl.org/dc/elements/1.1/"
   xmlns:cc="http://creativecommons.org/ns#"
   xmlns:rdf="http://www.w3.org/1999/02/22-rdf-syntax-ns#"
   xmlns:svg="http://www.w3.org/2000/svg"
   xmlns="http://www.w3.org/2000/svg"
   xmlns:sodipodi="http://sodipodi.sourceforge.net/DTD/sodipodi-0.dtd"
   xmlns:inkscape="http://www.inkscape.org/namespaces/inkscape"
   width="20in"
   height="12in"
   viewBox="0 0 508 304.80001"
   version="1.1"
   id="svg8"
   sodipodi:docname="lz127_bulkheads_0.11_all.svg"
   inkscape:version="0.92.1 r15371">
  <defs
     id="defs2">
    <marker
       style="overflow:visible"
       refY="0.0"
       refX="0.0"
       orient="auto"
       id="DistanceX">
      <path
         id="path4484"
         style="stroke:#000000; stroke-width:0.5"
         d="M 3,-3 L -3,3 M 0,-5 L  0,5" />
    </marker>
    <pattern
       y="0"
       x="0"
       width="8"
       patternUnits="userSpaceOnUse"
       id="Hatch"
       height="8">
      <path
         id="path4487"
         stroke-width="0.25"
         stroke="#000000"
         linecap="square"
         d="M8 4 l-4,4" />
      <path
         id="path4489"
         stroke-width="0.25"
         stroke="#000000"
         linecap="square"
         d="M6 2 l-4,4" />
      <path
         id="path4491"
         stroke-width="0.25"
         stroke="#000000"
         linecap="square"
         d="M4 0 l-4,4" />
    </pattern>
    <symbol
       id="*MODEL_SPACE" />
    <symbol
       id="*PAPER_SPACE" />
    <marker
       style="overflow:visible"
       refY="0.0"
       refX="0.0"
       orient="auto"
       id="DistanceX-7">
      <path
         id="path4529"
         style="stroke:#000000; stroke-width:0.5"
         d="M 3,-3 L -3,3 M 0,-5 L  0,5" />
    </marker>
    <pattern
       y="0"
       x="0"
       width="8"
       patternUnits="userSpaceOnUse"
       id="Hatch-9"
       height="8">
      <path
         id="path4532"
         stroke-width="0.25"
         stroke="#000000"
         linecap="square"
         d="M8 4 l-4,4" />
      <path
         id="path4534"
         stroke-width="0.25"
         stroke="#000000"
         linecap="square"
         d="M6 2 l-4,4" />
      <path
         id="path4536"
         stroke-width="0.25"
         stroke="#000000"
         linecap="square"
         d="M4 0 l-4,4" />
    </pattern>
    <symbol
       id="*MODEL_SPACE-9" />
    <symbol
       id="*PAPER_SPACE-9" />
    <marker
       style="overflow:visible"
       refY="0.0"
       refX="0.0"
       orient="auto"
       id="DistanceX-1">
      <path
         id="path4580"
         style="stroke:#000000; stroke-width:0.5"
         d="M 3,-3 L -3,3 M 0,-5 L  0,5" />
    </marker>
    <pattern
       y="0"
       x="0"
       width="8"
       patternUnits="userSpaceOnUse"
       id="Hatch-2"
       height="8">
      <path
         id="path4583"
         stroke-width="0.25"
         stroke="#000000"
         linecap="square"
         d="M8 4 l-4,4" />
      <path
         id="path4585"
         stroke-width="0.25"
         stroke="#000000"
         linecap="square"
         d="M6 2 l-4,4" />
      <path
         id="path4587"
         stroke-width="0.25"
         stroke="#000000"
         linecap="square"
         d="M4 0 l-4,4" />
    </pattern>
    <symbol
       id="*MODEL_SPACE-4" />
    <symbol
       id="*PAPER_SPACE-6" />
    <marker
       style="overflow:visible"
       refY="0.0"
       refX="0.0"
       orient="auto"
       id="DistanceX-2">
      <path
         id="path4637"
         style="stroke:#000000; stroke-width:0.5"
         d="M 3,-3 L -3,3 M 0,-5 L  0,5" />
    </marker>
    <pattern
       y="0"
       x="0"
       width="8"
       patternUnits="userSpaceOnUse"
       id="Hatch-6"
       height="8">
      <path
         id="path4640"
         stroke-width="0.25"
         stroke="#000000"
         linecap="square"
         d="M8 4 l-4,4" />
      <path
         id="path4642"
         stroke-width="0.25"
         stroke="#000000"
         linecap="square"
         d="M6 2 l-4,4" />
      <path
         id="path4644"
         stroke-width="0.25"
         stroke="#000000"
         linecap="square"
         d="M4 0 l-4,4" />
    </pattern>
    <symbol
       id="*MODEL_SPACE-5" />
    <symbol
       id="*PAPER_SPACE-2" />
    <marker
       style="overflow:visible"
       refY="0.0"
       refX="0.0"
       orient="auto"
       id="DistanceX-3">
      <path
         id="path4700"
         style="stroke:#000000; stroke-width:0.5"
         d="M 3,-3 L -3,3 M 0,-5 L  0,5" />
    </marker>
    <pattern
       y="0"
       x="0"
       width="8"
       patternUnits="userSpaceOnUse"
       id="Hatch-95"
       height="8">
      <path
         id="path4703"
         stroke-width="0.25"
         stroke="#000000"
         linecap="square"
         d="M8 4 l-4,4" />
      <path
         id="path4705"
         stroke-width="0.25"
         stroke="#000000"
         linecap="square"
         d="M6 2 l-4,4" />
      <path
         id="path4707"
         stroke-width="0.25"
         stroke="#000000"
         linecap="square"
         d="M4 0 l-4,4" />
    </pattern>
    <symbol
       id="*MODEL_SPACE-2" />
    <symbol
       id="*PAPER_SPACE-3" />
    <marker
       style="overflow:visible"
       refY="0.0"
       refX="0.0"
       orient="auto"
       id="DistanceX-6">
      <path
         id="path4769"
         style="stroke:#000000; stroke-width:0.5"
         d="M 3,-3 L -3,3 M 0,-5 L  0,5" />
    </marker>
    <pattern
       y="0"
       x="0"
       width="8"
       patternUnits="userSpaceOnUse"
       id="Hatch-4"
       height="8">
      <path
         id="path4772"
         stroke-width="0.25"
         stroke="#000000"
         linecap="square"
         d="M8 4 l-4,4" />
      <path
         id="path4774"
         stroke-width="0.25"
         stroke="#000000"
         linecap="square"
         d="M6 2 l-4,4" />
      <path
         id="path4776"
         stroke-width="0.25"
         stroke="#000000"
         linecap="square"
         d="M4 0 l-4,4" />
    </pattern>
    <symbol
       id="*MODEL_SPACE-0" />
    <symbol
       id="*PAPER_SPACE-24" />
    <marker
       style="overflow:visible"
       refY="0.0"
       refX="0.0"
       orient="auto"
       id="DistanceX-4">
      <path
         id="path4844"
         style="stroke:#000000; stroke-width:0.5"
         d="M 3,-3 L -3,3 M 0,-5 L  0,5" />
    </marker>
    <pattern
       y="0"
       x="0"
       width="8"
       patternUnits="userSpaceOnUse"
       id="Hatch-29"
       height="8">
      <path
         id="path4847"
         stroke-width="0.25"
         stroke="#000000"
         linecap="square"
         d="M8 4 l-4,4" />
      <path
         id="path4849"
         stroke-width="0.25"
         stroke="#000000"
         linecap="square"
         d="M6 2 l-4,4" />
      <path
         id="path4851"
         stroke-width="0.25"
         stroke="#000000"
         linecap="square"
         d="M4 0 l-4,4" />
    </pattern>
    <symbol
       id="*MODEL_SPACE-23" />
    <symbol
       id="*PAPER_SPACE-0" />
    <marker
       style="overflow:visible"
       refY="0.0"
       refX="0.0"
       orient="auto"
       id="DistanceX-35">
      <path
         id="path4925"
         style="stroke:#000000; stroke-width:0.5"
         d="M 3,-3 L -3,3 M 0,-5 L  0,5" />
    </marker>
    <pattern
       y="0"
       x="0"
       width="8"
       patternUnits="userSpaceOnUse"
       id="Hatch-5"
       height="8">
      <path
         id="path4928"
         stroke-width="0.25"
         stroke="#000000"
         linecap="square"
         d="M8 4 l-4,4" />
      <path
         id="path4930"
         stroke-width="0.25"
         stroke="#000000"
         linecap="square"
         d="M6 2 l-4,4" />
      <path
         id="path4932"
         stroke-width="0.25"
         stroke="#000000"
         linecap="square"
         d="M4 0 l-4,4" />
    </pattern>
    <symbol
       id="*MODEL_SPACE-43" />
    <symbol
       id="*PAPER_SPACE-34" />
    <marker
       style="overflow:visible"
       refY="0.0"
       refX="0.0"
       orient="auto"
       id="DistanceX-72">
      <path
         id="path5028"
         style="stroke:#000000; stroke-width:0.5"
         d="M 3,-3 L -3,3 M 0,-5 L  0,5" />
    </marker>
    <pattern
       y="0"
       x="0"
       width="8"
       patternUnits="userSpaceOnUse"
       id="Hatch-1"
       height="8">
      <path
         id="path5031"
         stroke-width="0.25"
         stroke="#000000"
         linecap="square"
         d="M8 4 l-4,4" />
      <path
         id="path5033"
         stroke-width="0.25"
         stroke="#000000"
         linecap="square"
         d="M6 2 l-4,4" />
      <path
         id="path5035"
         stroke-width="0.25"
         stroke="#000000"
         linecap="square"
         d="M4 0 l-4,4" />
    </pattern>
    <symbol
       id="*MODEL_SPACE-7" />
    <symbol
       id="*PAPER_SPACE-97" />
    <marker
       style="overflow:visible"
       refY="0.0"
       refX="0.0"
       orient="auto"
       id="DistanceX-8">
      <path
         id="path5121"
         style="stroke:#000000; stroke-width:0.5"
         d="M 3,-3 L -3,3 M 0,-5 L  0,5" />
    </marker>
    <pattern
       y="0"
       x="0"
       width="8"
       patternUnits="userSpaceOnUse"
       id="Hatch-8"
       height="8">
      <path
         id="path5124"
         stroke-width="0.25"
         stroke="#000000"
         linecap="square"
         d="M8 4 l-4,4" />
      <path
         id="path5126"
         stroke-width="0.25"
         stroke="#000000"
         linecap="square"
         d="M6 2 l-4,4" />
      <path
         id="path5128"
         stroke-width="0.25"
         stroke="#000000"
         linecap="square"
         d="M4 0 l-4,4" />
    </pattern>
    <symbol
       id="*MODEL_SPACE-3" />
    <symbol
       id="*PAPER_SPACE-4" />
    <marker
       style="overflow:visible"
       refY="0.0"
       refX="0.0"
       orient="auto"
       id="DistanceX-26">
      <path
         id="path5223"
         style="stroke:#000000; stroke-width:0.5"
         d="M 3,-3 L -3,3 M 0,-5 L  0,5" />
    </marker>
    <pattern
       y="0"
       x="0"
       width="8"
       patternUnits="userSpaceOnUse"
       id="Hatch-298"
       height="8">
      <path
         id="path5226"
         stroke-width="0.25"
         stroke="#000000"
         linecap="square"
         d="M8 4 l-4,4" />
      <path
         id="path5228"
         stroke-width="0.25"
         stroke="#000000"
         linecap="square"
         d="M6 2 l-4,4" />
      <path
         id="path5230"
         stroke-width="0.25"
         stroke="#000000"
         linecap="square"
         d="M4 0 l-4,4" />
    </pattern>
    <symbol
       id="*MODEL_SPACE-8" />
    <symbol
       id="*PAPER_SPACE-05" />
    <marker
       style="overflow:visible"
       refY="0.0"
       refX="0.0"
       orient="auto"
       id="DistanceX-89">
      <path
         id="path5328"
         style="stroke:#000000; stroke-width:0.5"
         d="M 3,-3 L -3,3 M 0,-5 L  0,5" />
    </marker>
    <pattern
       y="0"
       x="0"
       width="8"
       patternUnits="userSpaceOnUse"
       id="Hatch-49"
       height="8">
      <path
         id="path5331"
         stroke-width="0.25"
         stroke="#000000"
         linecap="square"
         d="M8 4 l-4,4" />
      <path
         id="path5333"
         stroke-width="0.25"
         stroke="#000000"
         linecap="square"
         d="M6 2 l-4,4" />
      <path
         id="path5335"
         stroke-width="0.25"
         stroke="#000000"
         linecap="square"
         d="M4 0 l-4,4" />
    </pattern>
    <symbol
       id="*MODEL_SPACE-72" />
    <symbol
       id="*PAPER_SPACE-62" />
    <marker
       style="overflow:visible"
       refY="0.0"
       refX="0.0"
       orient="auto"
       id="DistanceX-9">
      <path
         id="path5439"
         style="stroke:#000000; stroke-width:0.5"
         d="M 3,-3 L -3,3 M 0,-5 L  0,5" />
    </marker>
    <pattern
       y="0"
       x="0"
       width="8"
       patternUnits="userSpaceOnUse"
       id="Hatch-54"
       height="8">
      <path
         id="path5442"
         stroke-width="0.25"
         stroke="#000000"
         linecap="square"
         d="M8 4 l-4,4" />
      <path
         id="path5444"
         stroke-width="0.25"
         stroke="#000000"
         linecap="square"
         d="M6 2 l-4,4" />
      <path
         id="path5446"
         stroke-width="0.25"
         stroke="#000000"
         linecap="square"
         d="M4 0 l-4,4" />
    </pattern>
    <symbol
       id="*MODEL_SPACE-1" />
    <symbol
       id="*PAPER_SPACE-7" />
    <marker
       style="overflow:visible"
       refY="0.0"
       refX="0.0"
       orient="auto"
       id="DistanceX-18">
      <path
         id="path5556"
         style="stroke:#000000; stroke-width:0.5"
         d="M 3,-3 L -3,3 M 0,-5 L  0,5" />
    </marker>
    <pattern
       y="0"
       x="0"
       width="8"
       patternUnits="userSpaceOnUse"
       id="Hatch-60"
       height="8">
      <path
         id="path5559"
         stroke-width="0.25"
         stroke="#000000"
         linecap="square"
         d="M8 4 l-4,4" />
      <path
         id="path5561"
         stroke-width="0.25"
         stroke="#000000"
         linecap="square"
         d="M6 2 l-4,4" />
      <path
         id="path5563"
         stroke-width="0.25"
         stroke="#000000"
         linecap="square"
         d="M4 0 l-4,4" />
    </pattern>
    <symbol
       id="*MODEL_SPACE-6" />
    <symbol
       id="*PAPER_SPACE-90" />
    <marker
       style="overflow:visible"
       refY="0.0"
       refX="0.0"
       orient="auto"
       id="DistanceX-32">
      <path
         id="path5679"
         style="stroke:#000000; stroke-width:0.5"
         d="M 3,-3 L -3,3 M 0,-5 L  0,5" />
    </marker>
    <pattern
       y="0"
       x="0"
       width="8"
       patternUnits="userSpaceOnUse"
       id="Hatch-90"
       height="8">
      <path
         id="path5682"
         stroke-width="0.25"
         stroke="#000000"
         linecap="square"
         d="M8 4 l-4,4" />
      <path
         id="path5684"
         stroke-width="0.25"
         stroke="#000000"
         linecap="square"
         d="M6 2 l-4,4" />
      <path
         id="path5686"
         stroke-width="0.25"
         stroke="#000000"
         linecap="square"
         d="M4 0 l-4,4" />
    </pattern>
    <symbol
       id="*MODEL_SPACE-68" />
    <symbol
       id="*PAPER_SPACE-29" />
    <marker
       style="overflow:visible"
       refY="0.0"
       refX="0.0"
       orient="auto"
       id="DistanceX-16">
      <path
         id="path5808"
         style="stroke:#000000; stroke-width:0.5"
         d="M 3,-3 L -3,3 M 0,-5 L  0,5" />
    </marker>
    <pattern
       y="0"
       x="0"
       width="8"
       patternUnits="userSpaceOnUse"
       id="Hatch-53"
       height="8">
      <path
         id="path5811"
         stroke-width="0.25"
         stroke="#000000"
         linecap="square"
         d="M8 4 l-4,4" />
      <path
         id="path5813"
         stroke-width="0.25"
         stroke="#000000"
         linecap="square"
         d="M6 2 l-4,4" />
      <path
         id="path5815"
         stroke-width="0.25"
         stroke="#000000"
         linecap="square"
         d="M4 0 l-4,4" />
    </pattern>
    <symbol
       id="*MODEL_SPACE-13" />
    <symbol
       id="*PAPER_SPACE-1" />
    <marker
       style="overflow:visible"
       refY="0.0"
       refX="0.0"
       orient="auto"
       id="DistanceX-5">
      <path
         id="path5943"
         style="stroke:#000000; stroke-width:0.5"
         d="M 3,-3 L -3,3 M 0,-5 L  0,5" />
    </marker>
    <pattern
       y="0"
       x="0"
       width="8"
       patternUnits="userSpaceOnUse"
       id="Hatch-47"
       height="8">
      <path
         id="path5946"
         stroke-width="0.25"
         stroke="#000000"
         linecap="square"
         d="M8 4 l-4,4" />
      <path
         id="path5948"
         stroke-width="0.25"
         stroke="#000000"
         linecap="square"
         d="M6 2 l-4,4" />
      <path
         id="path5950"
         stroke-width="0.25"
         stroke="#000000"
         linecap="square"
         d="M4 0 l-4,4" />
    </pattern>
    <symbol
       id="*MODEL_SPACE-82" />
    <symbol
       id="*PAPER_SPACE-16" />
    <marker
       style="overflow:visible"
       refY="0.0"
       refX="0.0"
       orient="auto"
       id="DistanceX-62">
      <path
         id="path6084"
         style="stroke:#000000; stroke-width:0.5"
         d="M 3,-3 L -3,3 M 0,-5 L  0,5" />
    </marker>
    <pattern
       y="0"
       x="0"
       width="8"
       patternUnits="userSpaceOnUse"
       id="Hatch-544"
       height="8">
      <path
         id="path6087"
         stroke-width="0.25"
         stroke="#000000"
         linecap="square"
         d="M8 4 l-4,4" />
      <path
         id="path6089"
         stroke-width="0.25"
         stroke="#000000"
         linecap="square"
         d="M6 2 l-4,4" />
      <path
         id="path6091"
         stroke-width="0.25"
         stroke="#000000"
         linecap="square"
         d="M4 0 l-4,4" />
    </pattern>
    <symbol
       id="*MODEL_SPACE-96" />
    <symbol
       id="*PAPER_SPACE-8" />
    <marker
       style="overflow:visible"
       refY="0.0"
       refX="0.0"
       orient="auto"
       id="DistanceX-33">
      <path
         id="path6231"
         style="stroke:#000000; stroke-width:0.5"
         d="M 3,-3 L -3,3 M 0,-5 L  0,5" />
    </marker>
    <pattern
       y="0"
       x="0"
       width="8"
       patternUnits="userSpaceOnUse"
       id="Hatch-10"
       height="8">
      <path
         id="path6234"
         stroke-width="0.25"
         stroke="#000000"
         linecap="square"
         d="M8 4 l-4,4" />
      <path
         id="path6236"
         stroke-width="0.25"
         stroke="#000000"
         linecap="square"
         d="M6 2 l-4,4" />
      <path
         id="path6238"
         stroke-width="0.25"
         stroke="#000000"
         linecap="square"
         d="M4 0 l-4,4" />
    </pattern>
    <symbol
       id="*MODEL_SPACE-70" />
    <symbol
       id="*PAPER_SPACE-249" />
    <marker
       style="overflow:visible"
       refY="0.0"
       refX="0.0"
       orient="auto"
       id="DistanceX-52">
      <path
         id="path6384"
         style="stroke:#000000; stroke-width:0.5"
         d="M 3,-3 L -3,3 M 0,-5 L  0,5" />
    </marker>
    <pattern
       y="0"
       x="0"
       width="8"
       patternUnits="userSpaceOnUse"
       id="Hatch-7"
       height="8">
      <path
         id="path6387"
         stroke-width="0.25"
         stroke="#000000"
         linecap="square"
         d="M8 4 l-4,4" />
      <path
         id="path6389"
         stroke-width="0.25"
         stroke="#000000"
         linecap="square"
         d="M6 2 l-4,4" />
      <path
         id="path6391"
         stroke-width="0.25"
         stroke="#000000"
         linecap="square"
         d="M4 0 l-4,4" />
    </pattern>
    <symbol
       id="*MODEL_SPACE-11" />
    <symbol
       id="*PAPER_SPACE-5" />
    <marker
       style="overflow:visible"
       refY="0.0"
       refX="0.0"
       orient="auto"
       id="DistanceX-44">
      <path
         id="path6543"
         style="stroke:#000000; stroke-width:0.5"
         d="M 3,-3 L -3,3 M 0,-5 L  0,5" />
    </marker>
    <pattern
       y="0"
       x="0"
       width="8"
       patternUnits="userSpaceOnUse"
       id="Hatch-0"
       height="8">
      <path
         id="path6546"
         stroke-width="0.25"
         stroke="#000000"
         linecap="square"
         d="M8 4 l-4,4" />
      <path
         id="path6548"
         stroke-width="0.25"
         stroke="#000000"
         linecap="square"
         d="M6 2 l-4,4" />
      <path
         id="path6550"
         stroke-width="0.25"
         stroke="#000000"
         linecap="square"
         d="M4 0 l-4,4" />
    </pattern>
    <symbol
       id="*MODEL_SPACE-44" />
    <symbol
       id="*PAPER_SPACE-95" />
    <marker
       style="overflow:visible"
       refY="0.0"
       refX="0.0"
       orient="auto"
       id="DistanceX-70">
      <path
         id="path6708"
         style="stroke:#000000; stroke-width:0.5"
         d="M 3,-3 L -3,3 M 0,-5 L  0,5" />
    </marker>
    <pattern
       y="0"
       x="0"
       width="8"
       patternUnits="userSpaceOnUse"
       id="Hatch-3"
       height="8">
      <path
         id="path6711"
         stroke-width="0.25"
         stroke="#000000"
         linecap="square"
         d="M8 4 l-4,4" />
      <path
         id="path6713"
         stroke-width="0.25"
         stroke="#000000"
         linecap="square"
         d="M6 2 l-4,4" />
      <path
         id="path6715"
         stroke-width="0.25"
         stroke="#000000"
         linecap="square"
         d="M4 0 l-4,4" />
    </pattern>
    <symbol
       id="*MODEL_SPACE-98" />
    <symbol
       id="*PAPER_SPACE-56" />
  </defs>
  <sodipodi:namedview
     id="base"
     pagecolor="#ffffff"
     bordercolor="#666666"
     borderopacity="1.0"
     inkscape:pageopacity="0.0"
     inkscape:pageshadow="2"
     inkscape:zoom="0.70710678"
     inkscape:cx="761.88477"
     inkscape:cy="725.85139"
     inkscape:document-units="in"
     inkscape:current-layer="layer1"
     showgrid="true"
     inkscape:window-width="1920"
     inkscape:window-height="1057"
     inkscape:window-x="-8"
     inkscape:window-y="-8"
     inkscape:window-maximized="1"
     units="in"
     inkscape:snap-global="false"
     inkscape:measure-start="122.355,726.805"
     inkscape:measure-end="132.204,726.773">
    <inkscape:grid
       type="xygrid"
       id="grid4886"
       spacingx="38.100001"
       spacingy="38.100001"
       empspacing="2" />
  </sodipodi:namedview>
  <metadata
     id="metadata5">
    <rdf:RDF>
      <cc:Work
         rdf:about="">
        <dc:format>image/svg+xml</dc:format>
        <dc:type
           rdf:resource="http://purl.org/dc/dcmitype/StillImage" />
        <dc:title />
      </cc:Work>
    </rdf:RDF>
  </metadata>
  <g
     inkscape:groupmode="layer"
     id="layer15"
     inkscape:label="15"
     style="display:inline">
    <g
       id="g6726"
       inkscape:label="0"
       transform="matrix(0.26458334,0,0,0.26458334,342.96624,-106.49833)"
       style="stroke:#8a0000;stroke-opacity:1">
      <path
         id="path6722"
         style="fill:none;stroke:#006400;stroke-opacity:1"
         d="m -11.167937,1082.8192 -2.587295,-6.2463 a 48,48 0 0 1 8.849632,-1.7617 v 6.7611 a 41.28,41.28 0 0 1 9.8112,0 v -6.7611 a 48,48 0 0 1 8.820046,1.7529 l -2.587494,6.2468 a 41.28,41.28 0 0 1 9.065774,3.7511 l 2.587294,-6.2462 a 48,48 0 0 1 7.491425,5.0021 l -4.781065,4.7811 a 41.28,41.28 0 0 1 6.940166,6.9349 l 4.780696,-4.7807 a 48,48 0 0 1 5.006944,7.4882 l -6.246763,2.5875 a 41.28,41.28 0 0 1 3.757981,9.063 l 6.246281,-2.5873 a 48,48 0 0 1 1.761781,8.8496 H 40.98748 a 41.28,41.28 0 0 1 0,9.8112 h 6.761186 a 48,48 0 0 1 -1.752942,8.8201 l -6.246762,-2.5875 a 41.28,41.28 0 0 1 -3.751187,9.0657 l 6.246281,2.5873 a 48,48 0 0 1 -5.002125,7.4915 l -4.781065,-4.7811 a 41.28,41.28 0 0 1 -6.934967,6.9402 l 4.780697,4.7807 a 48,48 0 0 1 -7.488205,5.0069 l -2.587494,-6.2468 a 41.28,41.28 0 0 1 -9.06296,3.758 l 2.587295,6.2463 a 48,48 0 0 1 -8.849632,1.7618 v -6.7612 a 41.28,41.28 0 0 1 -9.8112,0 v 6.7612 a 48,48 0 0 1 -8.820046,-1.753 l 2.587494,-6.2467 a 41.28,41.28 0 0 1 -9.065774,-3.7512 l -2.587294,6.2463 a 48,48 0 0 1 -7.491425,-5.0022 l 4.781065,-4.781 a 41.28,41.28 0 0 1 -6.940166,-6.935 l -4.780696,4.7807 a 48,48 0 0 1 -5.006944,-7.4882 l 6.246763,-2.5875 a 41.28,41.28 0 0 1 -3.757981,-9.0629 l -6.246281,2.5873 a 48,48 0 0 1 -1.761781,-8.8497 h 6.761186 a 41.28,41.28 0 0 1 0,-9.8112 h -6.761186 a 48,48 0 0 1 1.752942,-8.82 l 6.246762,2.5875 a 41.28,41.28 0 0 1 3.751187,-9.0658 l -6.246281,-2.5873 a 48,48 0 0 1 5.002125,-7.4914 l 4.781065,4.781 a 41.28,41.28 0 0 1 6.934967,-6.9401 l -4.780697,-4.7807 a 48,48 0 0 1 7.488205,-5.007 l 2.587494,6.2468 a 41.28,41.28 0 0 1 9.06296,-3.758 z"
         inkscape:connector-curvature="0" />
      <path
         id="path6724"
         style="fill:none;stroke:#0000ff;stroke-opacity:1"
         d="m 26.88,1122.5598 a 26.88,26.88 0 1 0 -53.76,0 26.88,26.88 0 1 0 53.76,0 z"
         inkscape:connector-curvature="0" />
    </g>
  </g>
  <g
     inkscape:groupmode="layer"
     id="layer14"
     inkscape:label="14"
     style="display:inline">
    <g
       id="g6561"
       inkscape:label="0"
       transform="matrix(0.26458334,0,0,0.26458334,343.02966,-182.56006)"
       style="stroke:#810000;stroke-opacity:1">
      <path
         id="path6557"
         style="fill:none;stroke:#006400;stroke-opacity:1"
         d="m -27.614327,1068.752 2.581263,6.2317 a 53.76,53.76 0 0 1 9.06329,-3.7571 l -2.581143,-6.2315 a 60.48,60.48 0 0 1 13.645317,-2.716 v 6.745 a 53.76,53.76 0 0 1 9.8112,0 v -6.745 a 60.48,60.48 0 0 1 13.615982,2.7066 l -2.581263,6.2317 a 53.76,53.76 0 0 1 9.065444,3.752 l 2.581143,-6.2314 a 60.48,60.48 0 0 1 11.557473,7.7182 l -4.769552,4.7695 a 53.76,53.76 0 0 1 6.939556,6.9356 l 4.76933,-4.7693 a 60.48,60.48 0 0 1 7.724087,11.5535 l -6.231721,2.5813 a 53.76,53.76 0 0 1 3.757184,9.0632 l 6.23143,-2.5811 a 60.48,60.48 0 0 1 2.716029,13.6453 h -6.745008 a 53.76,53.76 0 0 1 0,9.8112 h 6.745008 a 60.48,60.48 0 0 1 -2.706584,13.616 l -6.23172,-2.5813 a 53.76,53.76 0 0 1 -3.751984,9.0655 l 6.23143,2.5811 a 60.48,60.48 0 0 1 -7.718199,11.5575 l -4.769552,-4.7696 a 53.76,53.76 0 0 1 -6.935576,6.9396 l 4.76933,4.7693 a 60.48,60.48 0 0 1 -11.55354,7.7241 l -2.581263,-6.2317 a 53.76,53.76 0 0 1 -9.06329,3.7572 l 2.581143,6.2314 a 60.48,60.48 0 0 1 -13.645317,2.716 v -6.745 a 53.76,53.76 0 0 1 -9.8112,0 v 6.745 a 60.48,60.48 0 0 1 -13.615982,-2.7065 l 2.581263,-6.2318 a 53.76,53.76 0 0 1 -9.065444,-3.7519 l -2.581143,6.2314 a 60.48,60.48 0 0 1 -11.557473,-7.7182 l 4.769552,-4.7696 a 53.76,53.76 0 0 1 -6.939556,-6.9355 l -4.76933,4.7693 a 60.48,60.48 0 0 1 -7.724087,-11.5536 l 6.231721,-2.5812 a 53.76,53.76 0 0 1 -3.757184,-9.0633 l -6.23143,2.5811 a 60.48,60.48 0 0 1 -2.716029,-13.6453 h 6.745008 a 53.76,53.76 0 0 1 0,-9.8112 h -6.745008 a 60.48,60.48 0 0 1 2.706584,-13.616 l 6.23172,2.5813 a 53.76,53.76 0 0 1 3.751984,-9.0654 l -6.23143,-2.5812 a 60.48,60.48 0 0 1 7.718199,-11.5575 l 4.769552,4.7696 a 53.76,53.76 0 0 1 6.935576,-6.9396 l -4.76933,-4.7693 a 60.48,60.48 0 0 1 11.55354,-7.7241 z"
         inkscape:connector-curvature="0" />
      <path
         id="path6559"
         style="fill:none;stroke:#0000ff;stroke-opacity:1"
         d="m 38.4,1122.5598 a 38.4,38.4 0 1 0 -76.8,0 38.4,38.4 0 1 0 76.8,0 z"
         inkscape:connector-curvature="0" />
    </g>
    <path
       style="opacity:1;vector-effect:none;fill:none;fill-opacity:1;stroke:#000000;stroke-width:0.12699997;stroke-linecap:butt;stroke-linejoin:miter;stroke-miterlimit:4;stroke-dasharray:none;stroke-dashoffset:0;stroke-opacity:1"
       d="m 343.66201,125.21629 0.47789,2.58641 0.40326,-2.58641"
       id="path7143"
       inkscape:connector-curvature="0"
       sodipodi:nodetypes="ccc" />
    <path
       sodipodi:nodetypes="ccc"
       inkscape:connector-curvature="0"
       id="path4922"
       d="m 343.33128,197.99817 0.47789,2.58641 0.40326,-2.58641"
       style="opacity:1;vector-effect:none;fill:none;fill-opacity:1;stroke:#000000;stroke-width:0.12699997;stroke-linecap:butt;stroke-linejoin:miter;stroke-miterlimit:4;stroke-dasharray:none;stroke-dashoffset:0;stroke-opacity:1" />
  </g>
  <g
     inkscape:groupmode="layer"
     id="layer13"
     inkscape:label="13"
     style="display:inline">
    <g
       id="g6402"
       inkscape:label="0"
       transform="matrix(0.26458334,0,0,0.26458334,342.76737,-258.88084)"
       style="stroke:#7b0000;stroke-opacity:1">
      <path
         id="path6398"
         style="fill:none;stroke:#006400;stroke-opacity:1"
         d="m -4.9056,1047.8407 v 6.7359 a 68.16,68.16 0 0 1 9.8112,0 v -6.7359 a 74.88,74.88 0 0 1 19.141417,3.8054 l -2.577755,6.2233 a 68.16,68.16 0 0 1 9.065215,3.7525 l 2.577678,-6.2231 a 74.88,74.88 0 0 1 16.241897,10.8477 l -4.763071,4.7631 a 68.16,68.16 0 0 1 6.939133,6.936 l 4.76293,-4.763 a 74.88,74.88 0 0 1 10.854335,16.2375 l -6.223251,2.5777 a 68.16,68.16 0 0 1 3.756631,9.0635 l 6.223067,-2.5776 a 74.88,74.88 0 0 1 3.815311,19.1705 h -6.735899 a 68.16,68.16 0 0 1 0,9.8112 h 6.735899 a 74.88,74.88 0 0 1 -3.805419,19.1414 l -6.223252,-2.5777 a 68.16,68.16 0 0 1 -3.752536,9.0652 l 6.223067,2.5777 a 74.88,74.88 0 0 1 -10.847659,16.2419 l -4.763071,-4.7631 a 68.16,68.16 0 0 1 -6.935999,6.9391 l 4.76293,4.763 a 74.88,74.88 0 0 1 -16.237436,10.8543 l -2.577755,-6.2233 a 68.16,68.16 0 0 1 -9.063519,3.7567 l 2.577679,6.223 A 74.88,74.88 0 0 1 4.9056,1197.279 v -6.7359 a 68.16,68.16 0 0 1 -9.8112,0 v 6.7359 a 74.88,74.88 0 0 1 -19.141417,-3.8055 l 2.577755,-6.2232 a 68.16,68.16 0 0 1 -9.065215,-3.7526 l -2.577678,6.2231 a 74.88,74.88 0 0 1 -16.241897,-10.8476 l 4.763071,-4.7631 a 68.16,68.16 0 0 1 -6.939133,-6.936 l -4.76293,4.7629 a 74.88,74.88 0 0 1 -10.854335,-16.2374 l 6.223251,-2.5778 a 68.16,68.16 0 0 1 -3.756631,-9.0635 l -6.223067,2.5777 a 74.88,74.88 0 0 1 -3.815311,-19.1706 h 6.735899 a 68.16,68.16 0 0 1 0,-9.8112 h -6.735899 a 74.88,74.88 0 0 1 3.805419,-19.1414 l 6.223252,2.5778 a 68.16,68.16 0 0 1 3.752536,-9.0653 l -6.223067,-2.5776 a 74.88,74.88 0 0 1 10.847659,-16.2419 l 4.763071,4.763 a 68.16,68.16 0 0 1 6.935999,-6.9391 l -4.76293,-4.7629 a 74.88,74.88 0 0 1 16.237436,-10.8544 l 2.577755,6.2233 a 68.16,68.16 0 0 1 9.063519,-3.7566 l -2.577679,-6.2231 a 74.88,74.88 0 0 1 19.170567,-3.8153 z"
         inkscape:connector-curvature="0" />
      <path
         id="path6400"
         style="fill:none;stroke:#0000ff;stroke-opacity:1"
         d="m 55.68,1122.5598 a 55.68,55.68 0 1 0 -111.36,0 55.68,55.68 0 1 0 111.36,0 z"
         inkscape:connector-curvature="0" />
    </g>
  </g>
  <g
     inkscape:groupmode="layer"
     id="layer12"
     inkscape:label="12"
     style="display:inline">
    <g
       id="g6249"
       inkscape:label="0"
       transform="matrix(0.26458334,0,0,0.26458334,266.79878,-106.31122)"
       style="stroke:#6d0000;stroke-opacity:1">
      <path
         id="path6245"
         style="fill:none;stroke:#006400;stroke-opacity:1"
         d="m -4.9056,1038.2224 v 6.7323 a 77.76,77.76 0 0 1 9.8112,0 v -6.7323 a 84.48,84.48 0 0 1 22.82223,4.5374 l -2.576386,6.22 a 77.76,77.76 0 0 1 9.06511,3.7528 l 2.576326,-6.2198 a 84.48,84.48 0 0 1 19.362427,12.9324 l -4.76054,4.7606 a 77.76,77.76 0 0 1 6.938939,6.9362 l 4.760431,-4.7605 a 84.48,84.48 0 0 1 12.939511,19.3577 l -6.219945,2.5764 a 77.76,77.76 0 0 1 3.756377,9.0637 l 6.219802,-2.5764 a 84.48,84.48 0 0 1 4.547568,22.8513 h -6.732343 a 77.76,77.76 0 0 1 0,9.8112 h 6.732343 a 84.48,84.48 0 0 1 -4.537463,22.8222 l -6.219946,-2.5763 a 77.76,77.76 0 0 1 -3.75279,9.0651 l 6.219803,2.5763 a 84.48,84.48 0 0 1 -12.932461,19.3624 l -4.76054,-4.7605 a 77.76,77.76 0 0 1 -6.936193,6.9389 l 4.76043,4.7605 a 84.48,84.48 0 0 1 -19.357715,12.9395 l -2.576386,-6.22 a 77.76,77.76 0 0 1 -9.063623,3.7564 l 2.576326,6.2198 A 84.48,84.48 0 0 1 4.9056,1206.8973 v -6.7324 a 77.76,77.76 0 0 1 -9.8112,0 v 6.7324 a 84.48,84.48 0 0 1 -22.82223,-4.5375 l 2.576386,-6.2199 a 77.76,77.76 0 0 1 -9.06511,-3.7528 l -2.576326,6.2198 a 84.48,84.48 0 0 1 -19.362427,-12.9325 l 4.76054,-4.7605 a 77.76,77.76 0 0 1 -6.938939,-6.9362 l -4.760431,4.7604 a 84.48,84.48 0 0 1 -12.939511,-19.3577 l 6.219945,-2.5764 a 77.76,77.76 0 0 1 -3.756377,-9.0636 l -6.219802,2.5763 a 84.48,84.48 0 0 1 -4.547568,-22.8513 h 6.732343 a 77.76,77.76 0 0 1 0,-9.8112 h -6.732343 a 84.48,84.48 0 0 1 4.537463,-22.8222 l 6.219946,2.5764 a 77.76,77.76 0 0 1 3.75279,-9.0651 l -6.219803,-2.5764 a 84.48,84.48 0 0 1 12.932461,-19.3624 l 4.76054,4.7606 a 77.76,77.76 0 0 1 6.936193,-6.939 l -4.76043,-4.7604 a 84.48,84.48 0 0 1 19.357715,-12.9395 l 2.576386,6.2199 a 77.76,77.76 0 0 1 9.063623,-3.7564 l -2.576326,-6.2198 a 84.48,84.48 0 0 1 22.851292,-4.5475 z"
         inkscape:connector-curvature="0" />
      <path
         id="path6247"
         style="fill:none;stroke:#0000ff;stroke-opacity:1"
         d="m 66.24,1122.5598 a 66.24,66.24 0 1 0 -132.48,0 66.24,66.24 0 1 0 132.48,0 z"
         inkscape:connector-curvature="0" />
    </g>
  </g>
  <g
     inkscape:groupmode="layer"
     id="layer11"
     inkscape:label="11"
     style="display:inline">
    <g
       id="g6102"
       inkscape:label="0"
       transform="matrix(0.26458334,0,0,0.26458334,266.79441,-182.59921)"
       style="stroke:#560000;stroke-opacity:1">
      <path
         id="path6098"
         style="fill:none;stroke:#006400;stroke-opacity:1"
         d="m -39.028341,1041.1962 2.575774,6.2184 a 83.52,83.52 0 0 1 9.063675,-3.7562 l -2.575722,-6.2184 a 90.24,90.24 0 0 1 25.059014,-4.9867 v 6.7307 a 83.52,83.52 0 0 1 9.8112,0 v -6.7307 a 90.24,90.24 0 0 1 25.029996,4.9765 l -2.575774,6.2185 a 83.52,83.52 0 0 1 9.065058,3.7529 l 2.575723,-6.2183 a 90.24,90.24 0 0 1 21.234124,14.1829 l -4.75941,4.7594 a 83.52,83.52 0 0 1 6.938844,6.9363 l 4.759314,-4.7593 a 90.24,90.24 0 0 1 14.190191,21.2293 l -6.218468,2.5758 a 83.52,83.52 0 0 1 3.756253,9.0636 l 6.218344,-2.5757 a 90.24,90.24 0 0 1 4.986768,25.059 h -6.730754 a 83.52,83.52 0 0 1 0,9.8112 h 6.730754 a 90.24,90.24 0 0 1 -4.976558,25.03 l -6.218469,-2.5758 a 83.52,83.52 0 0 1 -3.752914,9.0651 l 6.218344,2.5757 a 90.24,90.24 0 0 1 -14.182954,21.2341 l -4.759409,-4.7594 a 83.52,83.52 0 0 1 -6.936288,6.9389 l 4.759314,4.7593 a 90.24,90.24 0 0 1 -21.229288,14.1902 l -2.575774,-6.2185 a 83.52,83.52 0 0 1 -9.063675,3.7563 l 2.575722,6.2183 A 90.24,90.24 0 0 1 4.9056,1212.6664 v -6.7308 a 83.52,83.52 0 0 1 -9.8112,0 v 6.7308 a 90.24,90.24 0 0 1 -25.029996,-4.9766 l 2.575774,-6.2184 a 83.52,83.52 0 0 1 -9.065058,-3.753 l -2.575723,6.2184 a 90.24,90.24 0 0 1 -21.234124,-14.183 l 4.75941,-4.7594 a 83.52,83.52 0 0 1 -6.938844,-6.9363 l -4.759314,4.7593 a 90.24,90.24 0 0 1 -14.190191,-21.2292 l 6.218468,-2.5758 a 83.52,83.52 0 0 1 -3.756253,-9.0637 l -6.218344,2.5757 a 90.24,90.24 0 0 1 -4.986768,-25.059 h 6.730754 a 83.52,83.52 0 0 1 0,-9.8112 h -6.730754 a 90.24,90.24 0 0 1 4.976558,-25.03 l 6.218469,2.5758 a 83.52,83.52 0 0 1 3.752914,-9.0651 l -6.218344,-2.5757 a 90.24,90.24 0 0 1 14.182954,-21.2341 l 4.759409,4.7594 a 83.52,83.52 0 0 1 6.936288,-6.9388 l -4.759314,-4.7594 a 90.24,90.24 0 0 1 21.229288,-14.1901 z"
         inkscape:connector-curvature="0" />
      <path
         id="path6100"
         style="fill:none;stroke:#0000ff;stroke-opacity:1"
         d="m 72.96,1122.5598 a 72.96,72.96 0 1 0 -145.92,0 72.96,72.96 0 1 0 145.92,0 z"
         inkscape:connector-curvature="0" />
    </g>
    <path
       id="path6975-2"
       style="display:inline;opacity:1;vector-effect:none;fill:none;fill-opacity:1;stroke:#000000;stroke-width:0.127;stroke-linecap:butt;stroke-linejoin:miter;stroke-miterlimit:4;stroke-dasharray:none;stroke-dashoffset:0;stroke-opacity:1"
       d="m 267.01323,134.16049 -1.31766,1.94659 m 0,-1.94659 1.31766,1.94659"
       inkscape:connector-curvature="0"
       sodipodi:nodetypes="cccc" />
    <path
       style="display:inline;opacity:1;vector-effect:none;fill:none;fill-opacity:1;stroke:#000000;stroke-width:0.127;stroke-linecap:butt;stroke-linejoin:miter;stroke-miterlimit:4;stroke-dasharray:none;stroke-dashoffset:0;stroke-opacity:1"
       d="m 267.90253,134.16049 v 1.94659"
       id="path7006"
       inkscape:connector-curvature="0"
       sodipodi:nodetypes="cc" />
    <path
       sodipodi:nodetypes="cccc"
       inkscape:connector-curvature="0"
       d="m 266.70093,208.6407 -1.00704,1.94659 m 0,-1.94659 1.00704,1.94659"
       style="display:inline;opacity:1;vector-effect:none;fill:none;fill-opacity:1;stroke:#000000;stroke-width:0.127;stroke-linecap:butt;stroke-linejoin:miter;stroke-miterlimit:4;stroke-dasharray:none;stroke-dashoffset:0;stroke-opacity:1"
       id="path4888" />
    <path
       sodipodi:nodetypes="cc"
       inkscape:connector-curvature="0"
       id="path4890"
       d="m 267.3806,208.6407 v 1.94659"
       style="display:inline;opacity:1;vector-effect:none;fill:none;fill-opacity:1;stroke:#000000;stroke-width:0.127;stroke-linecap:butt;stroke-linejoin:miter;stroke-miterlimit:4;stroke-dasharray:none;stroke-dashoffset:0;stroke-opacity:1" />
    <path
       style="display:inline;opacity:1;vector-effect:none;fill:none;fill-opacity:1;stroke:#000000;stroke-width:0.127;stroke-linecap:butt;stroke-linejoin:miter;stroke-miterlimit:4;stroke-dasharray:none;stroke-dashoffset:0;stroke-opacity:1"
       d="m 268.03541,208.6407 v 1.94659"
       id="path4892"
       inkscape:connector-curvature="0"
       sodipodi:nodetypes="cc" />
    <path
       id="path4894"
       style="display:inline;opacity:1;vector-effect:none;fill:none;fill-opacity:1;stroke:#000000;stroke-width:0.127;stroke-linecap:butt;stroke-linejoin:miter;stroke-miterlimit:4;stroke-dasharray:none;stroke-dashoffset:0;stroke-opacity:1"
       d="m 342.32371,53.478988 -0.9196,1.94659 m 0,-1.94659 0.9196,1.94659"
       inkscape:connector-curvature="0"
       sodipodi:nodetypes="cccc" />
    <path
       style="display:inline;opacity:1;vector-effect:none;fill:none;fill-opacity:1;stroke:#000000;stroke-width:0.127;stroke-linecap:butt;stroke-linejoin:miter;stroke-miterlimit:4;stroke-dasharray:none;stroke-dashoffset:0;stroke-opacity:1"
       d="m 342.94436,53.478988 v 1.94659"
       id="path4896"
       inkscape:connector-curvature="0"
       sodipodi:nodetypes="cc" />
    <path
       sodipodi:nodetypes="cc"
       inkscape:connector-curvature="0"
       id="path4898"
       d="m 343.54231,53.478988 v 1.94659"
       style="display:inline;opacity:1;vector-effect:none;fill:none;fill-opacity:1;stroke:#000000;stroke-width:0.127;stroke-linecap:butt;stroke-linejoin:miter;stroke-miterlimit:4;stroke-dasharray:none;stroke-dashoffset:0;stroke-opacity:1" />
    <path
       style="display:inline;opacity:1;vector-effect:none;fill:none;fill-opacity:1;stroke:#000000;stroke-width:0.127;stroke-linecap:butt;stroke-linejoin:miter;stroke-miterlimit:4;stroke-dasharray:none;stroke-dashoffset:0;stroke-opacity:1"
       d="m 344.07619,53.478988 v 1.94659"
       id="path4900"
       inkscape:connector-curvature="0"
       sodipodi:nodetypes="cc" />
    <path
       sodipodi:nodetypes="cccc"
       inkscape:connector-curvature="0"
       d="m 342.72876,125.21629 -1.03191,2.58641 m 0,-2.58641 1.03191,2.58641"
       style="display:inline;opacity:1;vector-effect:none;fill:none;fill-opacity:1;stroke:#000000;stroke-width:0.127;stroke-linecap:butt;stroke-linejoin:miter;stroke-miterlimit:4;stroke-dasharray:none;stroke-dashoffset:0;stroke-opacity:1"
       id="path4914" />
    <path
       sodipodi:nodetypes="cc"
       inkscape:connector-curvature="0"
       id="path4916"
       d="m 343.24153,125.21629 v 2.58641"
       style="display:inline;opacity:1;vector-effect:none;fill:none;fill-opacity:1;stroke:#000000;stroke-width:0.127;stroke-linecap:butt;stroke-linejoin:miter;stroke-miterlimit:4;stroke-dasharray:none;stroke-dashoffset:0;stroke-opacity:1" />
    <path
       id="path4924"
       style="display:inline;opacity:1;vector-effect:none;fill:none;fill-opacity:1;stroke:#000000;stroke-width:0.127;stroke-linecap:butt;stroke-linejoin:miter;stroke-miterlimit:4;stroke-dasharray:none;stroke-dashoffset:0;stroke-opacity:1"
       d="m 342.72876,197.99817 -1.03191,2.58641 m 0,-2.58641 1.03191,2.58641"
       inkscape:connector-curvature="0"
       sodipodi:nodetypes="cccc" />
  </g>
  <g
     inkscape:groupmode="layer"
     id="layer10"
     inkscape:label="10"
     style="display:inline">
    <g
       id="g5961"
       inkscape:label="0"
       transform="matrix(0.26458334,0,0,0.26458334,266.79347,-258.74999)"
       style="stroke:#500000;stroke-opacity:1">
      <path
         id="path5957"
         style="fill:none;stroke:#006400;stroke-opacity:1"
         d="m -40.86782,1036.7553 2.57535,6.2174 a 88.32,88.32 0 0 1 9.063713,-3.7562 l -2.575304,-6.2173 a 95.04,95.04 0 0 1 26.898461,-5.3527 v 6.7297 a 88.32,88.32 0 0 1 9.8112,0 v -6.7297 a 95.04,95.04 0 0 1 26.869475,5.3424 l -2.57535,6.2175 a 88.32,88.32 0 0 1 9.06502,3.753 l 2.575304,-6.2174 a 95.04,95.04 0 0 1 22.793592,15.2249 l -4.758627,4.7586 a 88.32,88.32 0 0 1 6.938775,6.9364 l 4.758541,-4.7586 a 95.04,95.04 0 0 1 15.232232,22.7887 l -6.217445,2.5753 a 88.32,88.32 0 0 1 3.756162,9.0638 l 6.217334,-2.5753 a 95.04,95.04 0 0 1 5.352698,26.8984 h -6.729653 a 88.32,88.32 0 0 1 0,9.8112 h 6.729653 a 95.04,95.04 0 0 1 -5.342411,26.8695 l -6.217445,-2.5754 a 88.32,88.32 0 0 1 -3.753005,9.0651 l 6.217334,2.5753 a 95.04,95.04 0 0 1 -15.224857,22.7936 l -4.758627,-4.7587 a 88.32,88.32 0 0 1 -6.936358,6.9388 l 4.758541,4.7585 a 95.04,95.04 0 0 1 -22.788663,15.2323 l -2.57535,-6.2175 a 88.32,88.32 0 0 1 -9.063713,3.7562 l 2.575304,6.2173 A 95.04,95.04 0 0 1 4.9056,1217.4731 v -6.7296 a 88.32,88.32 0 0 1 -9.8112,0 v 6.7296 a 95.04,95.04 0 0 1 -26.869475,-5.3424 l 2.57535,-6.2174 a 88.32,88.32 0 0 1 -9.06502,-3.753 l -2.575304,6.2173 a 95.04,95.04 0 0 1 -22.793592,-15.2249 l 4.758627,-4.7586 a 88.32,88.32 0 0 1 -6.938775,-6.9363 l -4.758541,4.7585 a 95.04,95.04 0 0 1 -15.232232,-22.7887 l 6.217445,-2.5753 a 88.32,88.32 0 0 1 -3.756162,-9.0637 l -6.217334,2.5753 a 95.04,95.04 0 0 1 -5.352698,-26.8985 h 6.729653 a 88.32,88.32 0 0 1 0,-9.8112 h -6.729653 a 95.04,95.04 0 0 1 5.342411,-26.8695 l 6.217445,2.5754 a 88.32,88.32 0 0 1 3.753005,-9.065 l -6.217334,-2.5753 a 95.04,95.04 0 0 1 15.224857,-22.7936 l 4.758627,4.7586 a 88.32,88.32 0 0 1 6.936358,-6.9388 l -4.758541,-4.7585 a 95.04,95.04 0 0 1 22.788663,-15.2322 z"
         inkscape:connector-curvature="0" />
      <path
         id="path5959"
         style="fill:none;stroke:#0000ff;stroke-opacity:1"
         d="m 76.8,1122.5598 a 76.8,76.8 0 1 0 -153.6,0 76.8,76.8 0 1 0 153.6,0 z"
         inkscape:connector-curvature="0" />
    </g>
    <path
       style="display:inline;opacity:1;vector-effect:none;fill:none;fill-opacity:1;stroke:#000000;stroke-width:0.127;stroke-linecap:butt;stroke-linejoin:miter;stroke-miterlimit:4;stroke-dasharray:none;stroke-dashoffset:0;stroke-opacity:1"
       d="m 265.96666,59.189803 1.52323,1.823055"
       id="path6973"
       inkscape:connector-curvature="0"
       sodipodi:nodetypes="cc" />
    <path
       style="display:inline;opacity:1;vector-effect:none;fill:none;fill-opacity:1;stroke:#000000;stroke-width:0.127;stroke-linecap:butt;stroke-linejoin:miter;stroke-miterlimit:4;stroke-dasharray:none;stroke-dashoffset:0;stroke-opacity:1"
       d="m 267.48989,59.189803 -1.52323,1.823055"
       id="path6975"
       inkscape:connector-curvature="0"
       sodipodi:nodetypes="cc" />
  </g>
  <g
     inkscape:groupmode="layer"
     id="layer9"
     inkscape:label="9"
     style="display:inline">
    <g
       id="g5826"
       inkscape:label="0"
       transform="matrix(0.26458334,0,0,0.26458334,190.42348,-106.59726)"
       style="stroke:#490000;stroke-opacity:1">
      <path
         id="path5822"
         style="fill:none;stroke:#006400;stroke-opacity:1"
         d="m -4.9056,1025.724 v 6.7293 a 90.24,90.24 0 0 1 9.8112,0 v -6.7293 a 96.96,96.96 0 0 1 27.605194,5.4887 l -2.575198,6.2171 a 90.24,90.24 0 0 1 9.065007,3.7531 l 2.575154,-6.217 a 96.96,96.96 0 0 1 23.417316,15.6416 l -4.758346,4.7583 a 90.24,90.24 0 0 1 6.938748,6.9364 l 4.758265,-4.7583 a 96.96,96.96 0 0 1 15.649006,23.4124 l -6.21708,2.5752 a 90.24,90.24 0 0 1 3.756129,9.0637 l 6.216972,-2.5751 a 96.96,96.96 0 0 1 5.499056,27.6341 h -6.72926 a 90.24,90.24 0 0 1 0,9.8112 h 6.72926 a 96.96,96.96 0 0 1 -5.488739,27.6052 l -6.217079,-2.5752 a 90.24,90.24 0 0 1 -3.753039,9.065 l 6.216972,2.5752 a 96.96,96.96 0 0 1 -15.641579,23.4173 l -4.758347,-4.7584 a 90.24,90.24 0 0 1 -6.936383,6.9388 l 4.758265,4.7583 a 96.96,96.96 0 0 1 -23.412354,15.649 l -2.575199,-6.2171 a 90.24,90.24 0 0 1 -9.063727,3.7561 l 2.575154,6.217 a 96.96,96.96 0 0 1 -27.634168,5.499 v -6.7292 a 90.24,90.24 0 0 1 -9.8112,0 v 6.7292 a 96.96,96.96 0 0 1 -27.605194,-5.4887 l 2.575198,-6.2171 a 90.24,90.24 0 0 1 -9.065007,-3.753 l -2.575154,6.217 a 96.96,96.96 0 0 1 -23.417316,-15.6416 l 4.758346,-4.7584 a 90.24,90.24 0 0 1 -6.938748,-6.9364 l -4.758265,4.7583 a 96.96,96.96 0 0 1 -15.649006,-23.4123 l 6.21708,-2.5752 a 90.24,90.24 0 0 1 -3.756129,-9.0638 l -6.216972,2.5752 a 96.96,96.96 0 0 1 -5.499056,-27.6342 h 6.72926 a 90.24,90.24 0 0 1 0,-9.8112 h -6.72926 a 96.96,96.96 0 0 1 5.488739,-27.6052 l 6.217079,2.5752 a 90.24,90.24 0 0 1 3.753039,-9.065 l -6.216972,-2.5751 a 96.96,96.96 0 0 1 15.641579,-23.4174 l 4.758347,4.7584 a 90.24,90.24 0 0 1 6.936383,-6.9388 l -4.758265,-4.7582 a 96.96,96.96 0 0 1 23.412354,-15.649 l 2.575199,6.2171 a 90.24,90.24 0 0 1 9.063727,-3.7562 l -2.575154,-6.2169 A 96.96,96.96 0 0 1 -4.9056,1025.724 Z"
         inkscape:connector-curvature="0" />
      <path
         id="path5824"
         style="fill:none;stroke:#0000ff;stroke-opacity:1"
         d="m 76.8,1122.5598 a 76.8,76.8 0 1 0 -153.6,0 76.8,76.8 0 1 0 153.6,0 z"
         inkscape:connector-curvature="0" />
    </g>
    <path
       style="opacity:1;vector-effect:none;fill:none;fill-opacity:1;stroke:#000000;stroke-width:0.127;stroke-linecap:butt;stroke-linejoin:miter;stroke-miterlimit:4;stroke-dasharray:none;stroke-dashoffset:0;stroke-opacity:1"
       d="m 189.4286,211.48451 v 1.82408"
       id="path6967"
       inkscape:connector-curvature="0"
       sodipodi:nodetypes="cc" />
    <path
       style="opacity:1;vector-effect:none;fill:none;fill-opacity:1;stroke:#000000;stroke-width:0.127;stroke-linecap:butt;stroke-linejoin:miter;stroke-miterlimit:4;stroke-dasharray:none;stroke-dashoffset:0;stroke-opacity:1"
       d="m 190.28936,211.48451 1.34728,1.82408"
       id="path6969"
       inkscape:connector-curvature="0"
       sodipodi:nodetypes="cc" />
    <path
       style="opacity:1;vector-effect:none;fill:none;fill-opacity:1;stroke:#000000;stroke-width:0.127;stroke-linecap:butt;stroke-linejoin:miter;stroke-miterlimit:4;stroke-dasharray:none;stroke-dashoffset:0;stroke-opacity:1"
       d="m 190.28936,213.30859 1.34728,-1.82408"
       id="path6971"
       inkscape:connector-curvature="0"
       sodipodi:nodetypes="cc" />
  </g>
  <g
     inkscape:groupmode="layer"
     id="layer8"
     inkscape:label="8"
     style="display:inline">
    <g
       id="g5697"
       inkscape:label="0"
       transform="matrix(0.26458334,0,0,0.26458334,190.44504,-182.6889)"
       style="stroke:#400000;stroke-opacity:1">
      <path
         id="path5693"
         style="fill:none;stroke:#006400;stroke-opacity:1"
         d="m -4.9056,1024.7628 v 6.729 a 91.2,91.2 0 0 1 9.8112,0 v -6.729 a 97.92,97.92 0 0 1 27.97304,5.5619 l -2.575127,6.2169 a 91.2,91.2 0 0 1 9.065001,3.753 l 2.575082,-6.2168 a 97.92,97.92 0 0 1 23.729167,15.85 l -4.758213,4.7582 a 91.2,91.2 0 0 1 6.938736,6.9364 l 4.758133,-4.7582 a 97.92,97.92 0 0 1 15.857385,23.7242 l -6.216906,2.5752 a 91.2,91.2 0 0 1 3.756113,9.0637 l 6.2168,-2.5751 a 97.92,97.92 0 0 1 5.572231,28.002 H 91.06797 a 91.2,91.2 0 0 1 0,9.8112 h 6.729072 a 97.92,97.92 0 0 1 -5.5619,27.9731 l -6.216905,-2.5752 a 91.2,91.2 0 0 1 -3.753055,9.065 l 6.2168,2.5751 a 97.92,97.92 0 0 1 -15.849933,23.7292 l -4.758213,-4.7582 a 91.2,91.2 0 0 1 -6.936396,6.9387 l 4.758133,4.7581 a 97.92,97.92 0 0 1 -23.724188,15.8574 l -2.575126,-6.2169 a 91.2,91.2 0 0 1 -9.063734,3.7561 l 2.575083,6.2168 A 97.92,97.92 0 0 1 4.9056,1220.3569 v -6.7291 a 91.2,91.2 0 0 1 -9.8112,0 v 6.7291 a 97.92,97.92 0 0 1 -27.97304,-5.5619 l 2.575127,-6.2169 a 91.2,91.2 0 0 1 -9.065001,-3.7531 l -2.575082,6.2168 a 97.92,97.92 0 0 1 -23.729167,-15.8499 l 4.758213,-4.7582 a 91.2,91.2 0 0 1 -6.938736,-6.9364 l -4.758133,4.7581 a 97.92,97.92 0 0 1 -15.857385,-23.7242 l 6.216906,-2.5751 a 91.2,91.2 0 0 1 -3.756113,-9.0638 l -6.2168,2.5751 a 97.92,97.92 0 0 1 -5.572231,-28.002 h 6.729072 a 91.2,91.2 0 0 1 0,-9.8112 h -6.729072 a 97.92,97.92 0 0 1 5.5619,-27.973 l 6.216905,2.5751 a 91.2,91.2 0 0 1 3.753055,-9.065 l -6.2168,-2.5751 a 97.92,97.92 0 0 1 15.849933,-23.7291 l 4.758213,4.7582 a 91.2,91.2 0 0 1 6.936396,-6.9388 l -4.758133,-4.7581 a 97.92,97.92 0 0 1 23.724188,-15.8574 l 2.575126,6.2169 a 91.2,91.2 0 0 1 9.063734,-3.7561 l -2.575083,-6.2168 a 97.92,97.92 0 0 1 28.002008,-5.5722 z"
         inkscape:connector-curvature="0" />
      <path
         id="path5695"
         style="fill:none;stroke:#0000ff;stroke-opacity:1"
         d="m 76.8,1122.5598 a 76.8,76.8 0 1 0 -153.6,0 76.8,76.8 0 1 0 153.6,0 z"
         inkscape:connector-curvature="0" />
    </g>
    <path
       style="display:inline;opacity:1;vector-effect:none;fill:none;fill-opacity:1;stroke:#000000;stroke-width:0.127;stroke-linecap:butt;stroke-linejoin:miter;stroke-miterlimit:4;stroke-dasharray:none;stroke-dashoffset:0;stroke-opacity:1"
       d="m 189.12004,135.30114 0.69292,2.17955 0.49494,-2.17955"
       id="path6914-0"
       inkscape:connector-curvature="0"
       sodipodi:nodetypes="ccc" />
    <path
       style="display:inline;opacity:1;vector-effect:none;fill:none;fill-opacity:1;stroke:#000000;stroke-width:0.127;stroke-linecap:butt;stroke-linejoin:miter;stroke-miterlimit:4;stroke-dasharray:none;stroke-dashoffset:0;stroke-opacity:1"
       d="m 190.77995,137.48069 v -2.17955"
       id="path6916-5"
       inkscape:connector-curvature="0"
       sodipodi:nodetypes="cc" />
    <path
       inkscape:connector-curvature="0"
       id="path6934-1"
       d="m 191.28465,137.48069 v -2.17955"
       style="display:inline;opacity:1;vector-effect:none;fill:none;fill-opacity:1;stroke:#000000;stroke-width:0.127;stroke-linecap:butt;stroke-linejoin:miter;stroke-miterlimit:4;stroke-dasharray:none;stroke-dashoffset:0;stroke-opacity:1"
       sodipodi:nodetypes="cc" />
    <path
       style="display:inline;opacity:1;vector-effect:none;fill:none;fill-opacity:1;stroke:#000000;stroke-width:0.127;stroke-linecap:butt;stroke-linejoin:miter;stroke-miterlimit:4;stroke-dasharray:none;stroke-dashoffset:0;stroke-opacity:1"
       d="m 191.7716,137.48069 v -2.17955"
       id="path6965"
       inkscape:connector-curvature="0"
       sodipodi:nodetypes="cc" />
  </g>
  <g
     inkscape:groupmode="layer"
     id="layer7"
     inkscape:label="7"
     style="display:inline">
    <g
       id="g5574"
       inkscape:label="0"
       transform="matrix(0.26458334,0,0,0.26458334,190.91505,-259.49492)">
      <path
         id="path5570"
         style="fill:none;stroke:#006400;stroke-opacity:1"
         d="m -4.9056,1024.7628 v 6.729 a 91.2,91.2 0 0 1 9.8112,0 v -6.729 a 97.92,97.92 0 0 1 27.97304,5.5619 l -2.575127,6.2169 a 91.2,91.2 0 0 1 9.065001,3.753 l 2.575082,-6.2168 a 97.92,97.92 0 0 1 23.729167,15.85 l -4.758213,4.7582 a 91.2,91.2 0 0 1 6.938736,6.9364 l 4.758133,-4.7582 a 97.92,97.92 0 0 1 15.857385,23.7242 l -6.216906,2.5752 a 91.2,91.2 0 0 1 3.756113,9.0637 l 6.2168,-2.5751 a 97.92,97.92 0 0 1 5.572231,28.002 H 91.06797 a 91.2,91.2 0 0 1 0,9.8112 h 6.729072 a 97.92,97.92 0 0 1 -5.5619,27.9731 l -6.216905,-2.5752 a 91.2,91.2 0 0 1 -3.753055,9.065 l 6.2168,2.5751 a 97.92,97.92 0 0 1 -15.849933,23.7292 l -4.758213,-4.7582 a 91.2,91.2 0 0 1 -6.936396,6.9387 l 4.758133,4.7581 a 97.92,97.92 0 0 1 -23.724188,15.8574 l -2.575126,-6.2169 a 91.2,91.2 0 0 1 -9.063734,3.7561 l 2.575083,6.2168 A 97.92,97.92 0 0 1 4.9056,1220.3569 v -6.7291 a 91.2,91.2 0 0 1 -9.8112,0 v 6.7291 a 97.92,97.92 0 0 1 -27.97304,-5.5619 l 2.575127,-6.2169 a 91.2,91.2 0 0 1 -9.065001,-3.7531 l -2.575082,6.2168 a 97.92,97.92 0 0 1 -23.729167,-15.8499 l 4.758213,-4.7582 a 91.2,91.2 0 0 1 -6.938736,-6.9364 l -4.758133,4.7581 a 97.92,97.92 0 0 1 -15.857385,-23.7242 l 6.216906,-2.5751 a 91.2,91.2 0 0 1 -3.756113,-9.0638 l -6.2168,2.5751 a 97.92,97.92 0 0 1 -5.572231,-28.002 h 6.729072 a 91.2,91.2 0 0 1 0,-9.8112 h -6.729072 a 97.92,97.92 0 0 1 5.5619,-27.973 l 6.216905,2.5751 a 91.2,91.2 0 0 1 3.753055,-9.065 l -6.2168,-2.5751 a 97.92,97.92 0 0 1 15.849933,-23.7291 l 4.758213,4.7582 a 91.2,91.2 0 0 1 6.936396,-6.9388 l -4.758133,-4.7581 a 97.92,97.92 0 0 1 23.724188,-15.8574 l 2.575126,6.2169 a 91.2,91.2 0 0 1 9.063734,-3.7561 l -2.575083,-6.2168 a 97.92,97.92 0 0 1 28.002008,-5.5722 z"
         inkscape:connector-curvature="0" />
      <path
         id="path5572"
         style="fill:none;stroke:#0000ff;stroke-opacity:1"
         d="m 76.8,1122.5598 a 76.8,76.8 0 1 0 -153.6,0 76.8,76.8 0 1 0 153.6,0 z"
         inkscape:connector-curvature="0" />
    </g>
    <path
       style="display:inline;opacity:1;vector-effect:none;fill:none;fill-opacity:1;stroke:#000000;stroke-width:0.127;stroke-linecap:butt;stroke-linejoin:miter;stroke-miterlimit:4;stroke-dasharray:none;stroke-dashoffset:0;stroke-opacity:1"
       d="m 189.3896,58.484996 0.83386,2.248969 0.61217,-2.248969"
       id="path6914"
       inkscape:connector-curvature="0"
       sodipodi:nodetypes="ccc" />
    <path
       style="display:inline;opacity:1;vector-effect:none;fill:none;fill-opacity:1;stroke:#000000;stroke-width:0.127;stroke-linecap:butt;stroke-linejoin:miter;stroke-miterlimit:4;stroke-dasharray:none;stroke-dashoffset:0;stroke-opacity:1"
       d="M 191.69265,60.733965 V 58.484996"
       id="path6916"
       inkscape:connector-curvature="0"
       sodipodi:nodetypes="cc" />
    <path
       inkscape:connector-curvature="0"
       id="path6934"
       d="M 192.39108,60.733965 V 58.484996"
       style="display:inline;opacity:1;vector-effect:none;fill:none;fill-opacity:1;stroke:#000000;stroke-width:0.127;stroke-linecap:butt;stroke-linejoin:miter;stroke-miterlimit:4;stroke-dasharray:none;stroke-dashoffset:0;stroke-opacity:1"
       sodipodi:nodetypes="cc" />
  </g>
  <g
     inkscape:groupmode="layer"
     id="layer6"
     inkscape:label="6"
     style="display:inline">
    <g
       id="g5457"
       inkscape:label="0"
       transform="matrix(0.26458334,0,0,0.26458334,114.4612,-106.21657)">
      <path
         id="path5453"
         style="fill:none;stroke:#006400;stroke-opacity:1"
         d="m -41.971385,1034.091 2.575126,6.2169 a 91.2,91.2 0 0 1 9.063734,-3.7561 l -2.575083,-6.2168 a 97.92,97.92 0 0 1 28.002008,-5.5722 v 6.729 a 91.2,91.2 0 0 1 9.8112,0 v -6.729 a 97.92,97.92 0 0 1 27.97304,5.5619 l -2.575127,6.2169 a 91.2,91.2 0 0 1 9.065001,3.753 l 2.575082,-6.2168 a 97.92,97.92 0 0 1 23.729167,15.85 l -4.758213,4.7582 a 91.2,91.2 0 0 1 6.938736,6.9364 l 4.758133,-4.7582 a 97.92,97.92 0 0 1 15.857385,23.7242 l -6.216906,2.5752 a 91.2,91.2 0 0 1 3.756113,9.0637 l 6.2168,-2.5751 a 97.92,97.92 0 0 1 5.572231,28.002 H 91.06797 a 91.2,91.2 0 0 1 0,9.8112 h 6.729072 a 97.92,97.92 0 0 1 -5.5619,27.9731 l -6.216905,-2.5752 a 91.2,91.2 0 0 1 -3.753055,9.065 l 6.2168,2.5751 a 97.92,97.92 0 0 1 -15.849933,23.7292 l -4.758213,-4.7582 a 91.2,91.2 0 0 1 -6.936396,6.9387 l 4.758133,4.7581 a 97.92,97.92 0 0 1 -23.724188,15.8574 l -2.575126,-6.2169 a 91.2,91.2 0 0 1 -9.063734,3.7561 l 2.575083,6.2168 A 97.92,97.92 0 0 1 4.9056,1220.3569 v -6.7291 a 91.2,91.2 0 0 1 -9.8112,0 v 6.7291 a 97.92,97.92 0 0 1 -27.97304,-5.5619 l 2.575127,-6.2169 a 91.2,91.2 0 0 1 -9.065001,-3.7531 l -2.575082,6.2168 a 97.92,97.92 0 0 1 -23.729167,-15.8499 l 4.758213,-4.7582 a 91.2,91.2 0 0 1 -6.938736,-6.9364 l -4.758133,4.7581 a 97.92,97.92 0 0 1 -15.857385,-23.7242 l 6.216906,-2.5751 a 91.2,91.2 0 0 1 -3.756113,-9.0638 l -6.2168,2.5751 a 97.92,97.92 0 0 1 -5.572231,-28.002 h 6.729072 a 91.2,91.2 0 0 1 0,-9.8112 h -6.729072 a 97.92,97.92 0 0 1 5.5619,-27.973 l 6.216905,2.5751 a 91.2,91.2 0 0 1 3.753055,-9.065 l -6.2168,-2.5751 a 97.92,97.92 0 0 1 15.849933,-23.7291 l 4.758213,4.7582 a 91.2,91.2 0 0 1 6.936396,-6.9388 l -4.758133,-4.7581 a 97.92,97.92 0 0 1 23.724188,-15.8574 z"
         inkscape:connector-curvature="0" />
      <path
         id="path5455"
         style="fill:none;stroke:#0000ff;stroke-opacity:1"
         d="m 76.8,1122.5598 a 76.8,76.8 0 1 0 -153.6,0 76.8,76.8 0 1 0 153.6,0 z"
         inkscape:connector-curvature="0" />
    </g>
    <path
       style="opacity:1;vector-effect:none;fill:none;fill-opacity:1;stroke:#000000;stroke-width:0.127;stroke-linecap:butt;stroke-linejoin:miter;stroke-miterlimit:4;stroke-dasharray:none;stroke-dashoffset:0;stroke-opacity:1"
       d="m 113.09897,211.83614 0.80625,1.93767 0.56436,-1.89155"
       id="path6918"
       inkscape:connector-curvature="0" />
    <path
       style="opacity:1;vector-effect:none;fill:none;fill-opacity:1;stroke:#000000;stroke-width:0.127;stroke-linecap:butt;stroke-linejoin:miter;stroke-miterlimit:4;stroke-dasharray:none;stroke-dashoffset:0;stroke-opacity:1"
       d="m 115.4706,211.87122 v 2.11498"
       id="path6920"
       inkscape:connector-curvature="0" />
  </g>
  <g
     inkscape:groupmode="layer"
     id="layer5"
     inkscape:label="5"
     style="display:inline">
    <g
       id="g5346"
       inkscape:label="0"
       transform="matrix(0.26458334,0,0,0.26458334,114.26846,-182.60589)"
       style="stroke:#220000;stroke-opacity:1">
      <path
         id="path5342"
         style="fill:none;stroke:#006400;stroke-opacity:1"
         d="m -41.971385,1034.091 2.575126,6.2169 a 91.2,91.2 0 0 1 9.063734,-3.7561 l -2.575083,-6.2168 a 97.92,97.92 0 0 1 28.002008,-5.5722 v 6.729 a 91.2,91.2 0 0 1 9.8112,0 v -6.729 a 97.92,97.92 0 0 1 27.97304,5.5619 l -2.575127,6.2169 a 91.2,91.2 0 0 1 9.065001,3.753 l 2.575082,-6.2168 a 97.92,97.92 0 0 1 23.729167,15.85 l -4.758213,4.7582 a 91.2,91.2 0 0 1 6.938736,6.9364 l 4.758133,-4.7582 a 97.92,97.92 0 0 1 15.857385,23.7242 l -6.216906,2.5752 a 91.2,91.2 0 0 1 3.756113,9.0637 l 6.2168,-2.5751 a 97.92,97.92 0 0 1 5.572231,28.002 H 91.06797 a 91.2,91.2 0 0 1 0,9.8112 h 6.729072 a 97.92,97.92 0 0 1 -5.5619,27.9731 l -6.216905,-2.5752 a 91.2,91.2 0 0 1 -3.753055,9.065 l 6.2168,2.5751 a 97.92,97.92 0 0 1 -15.849933,23.7292 l -4.758213,-4.7582 a 91.2,91.2 0 0 1 -6.936396,6.9387 l 4.758133,4.7581 a 97.92,97.92 0 0 1 -23.724188,15.8574 l -2.575126,-6.2169 a 91.2,91.2 0 0 1 -9.063734,3.7561 l 2.575083,6.2168 A 97.92,97.92 0 0 1 4.9056,1220.3569 v -6.7291 a 91.2,91.2 0 0 1 -9.8112,0 v 6.7291 a 97.92,97.92 0 0 1 -27.97304,-5.5619 l 2.575127,-6.2169 a 91.2,91.2 0 0 1 -9.065001,-3.7531 l -2.575082,6.2168 a 97.92,97.92 0 0 1 -23.729167,-15.8499 l 4.758213,-4.7582 a 91.2,91.2 0 0 1 -6.938736,-6.9364 l -4.758133,4.7581 a 97.92,97.92 0 0 1 -15.857385,-23.7242 l 6.216906,-2.5751 a 91.2,91.2 0 0 1 -3.756113,-9.0638 l -6.2168,2.5751 a 97.92,97.92 0 0 1 -5.572231,-28.002 h 6.729072 a 91.2,91.2 0 0 1 0,-9.8112 h -6.729072 a 97.92,97.92 0 0 1 5.5619,-27.973 l 6.216905,2.5751 a 91.2,91.2 0 0 1 3.753055,-9.065 l -6.2168,-2.5751 a 97.92,97.92 0 0 1 15.849933,-23.7291 l 4.758213,4.7582 a 91.2,91.2 0 0 1 6.936396,-6.9388 l -4.758133,-4.7581 a 97.92,97.92 0 0 1 23.724188,-15.8574 z"
         inkscape:connector-curvature="0" />
      <path
         id="path5344"
         style="fill:none;stroke:#0000ff;stroke-opacity:1"
         d="m 76.8,1122.5598 a 76.8,76.8 0 1 0 -153.6,0 76.8,76.8 0 1 0 153.6,0 z"
         inkscape:connector-curvature="0" />
    </g>
    <path
       style="display:inline;opacity:1;vector-effect:none;fill:none;fill-opacity:1;stroke:#000000;stroke-width:0.12700002;stroke-linecap:butt;stroke-linejoin:miter;stroke-miterlimit:4;stroke-dasharray:none;stroke-dashoffset:0;stroke-opacity:1"
       d="m 113.41051,135.22098 0.88565,2.18364 0.88565,-2.18364"
       id="path6910"
       inkscape:connector-curvature="0" />
  </g>
  <g
     inkscape:groupmode="layer"
     id="layer4"
     inkscape:label="4"
     style="display:inline">
    <g
       id="g5241"
       inkscape:label="0"
       transform="matrix(0.26458334,0,0,0.26458334,114.54008,-258.89454)">
      <path
         id="path5237"
         style="fill:none;stroke:#006400;stroke-opacity:1"
         d="m -4.9056,1027.6465 v 6.7297 a 88.32,88.32 0 0 1 9.8112,0 v -6.7297 a 95.04,95.04 0 0 1 26.869475,5.3424 l -2.57535,6.2175 a 88.32,88.32 0 0 1 9.06502,3.753 l 2.575304,-6.2174 a 95.04,95.04 0 0 1 22.793592,15.2249 l -4.758627,4.7586 a 88.32,88.32 0 0 1 6.938775,6.9364 l 4.758541,-4.7586 a 95.04,95.04 0 0 1 15.232232,22.7887 l -6.217445,2.5753 a 88.32,88.32 0 0 1 3.756162,9.0638 l 6.217334,-2.5753 a 95.04,95.04 0 0 1 5.352698,26.8984 h -6.729653 a 88.32,88.32 0 0 1 0,9.8112 h 6.729653 a 95.04,95.04 0 0 1 -5.342411,26.8695 l -6.217445,-2.5754 a 88.32,88.32 0 0 1 -3.753005,9.0651 l 6.217334,2.5753 a 95.04,95.04 0 0 1 -15.224857,22.7936 l -4.758627,-4.7587 a 88.32,88.32 0 0 1 -6.936358,6.9388 l 4.758541,4.7585 a 95.04,95.04 0 0 1 -22.788663,15.2323 l -2.57535,-6.2175 a 88.32,88.32 0 0 1 -9.063713,3.7562 l 2.575304,6.2173 A 95.04,95.04 0 0 1 4.9056,1217.4731 v -6.7296 a 88.32,88.32 0 0 1 -9.8112,0 v 6.7296 a 95.04,95.04 0 0 1 -26.869475,-5.3424 l 2.57535,-6.2174 a 88.32,88.32 0 0 1 -9.06502,-3.753 l -2.575304,6.2173 a 95.04,95.04 0 0 1 -22.793592,-15.2249 l 4.758627,-4.7586 a 88.32,88.32 0 0 1 -6.938775,-6.9363 l -4.758541,4.7585 a 95.04,95.04 0 0 1 -15.232232,-22.7887 l 6.217445,-2.5753 a 88.32,88.32 0 0 1 -3.756162,-9.0637 l -6.217334,2.5753 a 95.04,95.04 0 0 1 -5.352698,-26.8985 h 6.729653 a 88.32,88.32 0 0 1 0,-9.8112 h -6.729653 a 95.04,95.04 0 0 1 5.342411,-26.8695 l 6.217445,2.5754 a 88.32,88.32 0 0 1 3.753005,-9.065 l -6.217334,-2.5753 a 95.04,95.04 0 0 1 15.224857,-22.7936 l 4.758627,4.7586 a 88.32,88.32 0 0 1 6.936358,-6.9388 l -4.758541,-4.7585 a 95.04,95.04 0 0 1 22.788663,-15.2322 l 2.57535,6.2174 a 88.32,88.32 0 0 1 9.063713,-3.7562 l -2.575304,-6.2173 a 95.04,95.04 0 0 1 26.898461,-5.3527 z"
         inkscape:connector-curvature="0" />
      <path
         id="path5239"
         style="fill:none;stroke:#0000ff;stroke-opacity:1"
         d="m 74.88,1122.5598 a 74.88,74.88 0 1 0 -149.76,0 74.88,74.88 0 1 0 149.76,0 z"
         inkscape:connector-curvature="0" />
    </g>
    <path
       style="opacity:1;vector-effect:none;fill:none;fill-opacity:1;stroke:#000000;stroke-width:0.127;stroke-linecap:butt;stroke-linejoin:miter;stroke-miterlimit:4;stroke-dasharray:none;stroke-dashoffset:0;stroke-opacity:1"
       d="m 113.69517,58.385324 v 1.92593"
       id="path6906"
       inkscape:connector-curvature="0"
       sodipodi:nodetypes="cc" />
    <path
       style="opacity:1;vector-effect:none;fill:none;fill-opacity:1;stroke:#000000;stroke-width:0.127;stroke-linecap:butt;stroke-linejoin:miter;stroke-miterlimit:4;stroke-dasharray:none;stroke-dashoffset:0;stroke-opacity:1"
       d="m 114.5994,58.442724 0.62273,1.783261 0.70578,-1.818951"
       id="path6908"
       inkscape:connector-curvature="0" />
  </g>
  <g
     inkscape:groupmode="layer"
     id="layer3"
     inkscape:label="3"
     style="display:inline">
    <g
       id="g5139"
       inkscape:label="0"
       transform="matrix(0.26458334,0,0,0.26458334,38.058428,-106.37589)">
      <path
         id="path5135"
         style="fill:none;stroke:#006400;stroke-opacity:1"
         d="m -39.028341,1041.1962 2.575774,6.2184 a 83.52,83.52 0 0 1 9.063675,-3.7562 l -2.575722,-6.2184 a 90.24,90.24 0 0 1 25.059014,-4.9867 v 6.7307 a 83.52,83.52 0 0 1 9.8112,0 v -6.7307 a 90.24,90.24 0 0 1 25.029996,4.9765 l -2.575774,6.2185 a 83.52,83.52 0 0 1 9.065058,3.7529 l 2.575723,-6.2183 a 90.24,90.24 0 0 1 21.234124,14.1829 l -4.75941,4.7594 a 83.52,83.52 0 0 1 6.938844,6.9363 l 4.759314,-4.7593 a 90.24,90.24 0 0 1 14.190191,21.2293 l -6.218468,2.5758 a 83.52,83.52 0 0 1 3.756253,9.0636 l 6.218344,-2.5757 a 90.24,90.24 0 0 1 4.986768,25.059 h -6.730754 a 83.52,83.52 0 0 1 0,9.8112 h 6.730754 a 90.24,90.24 0 0 1 -4.976558,25.03 l -6.218469,-2.5758 a 83.52,83.52 0 0 1 -3.752914,9.0651 l 6.218344,2.5757 a 90.24,90.24 0 0 1 -14.182954,21.2341 l -4.759409,-4.7594 a 83.52,83.52 0 0 1 -6.936288,6.9389 l 4.759314,4.7593 a 90.24,90.24 0 0 1 -21.229288,14.1902 l -2.575774,-6.2185 a 83.52,83.52 0 0 1 -9.063675,3.7563 l 2.575722,6.2183 A 90.24,90.24 0 0 1 4.9056,1212.6664 v -6.7308 a 83.52,83.52 0 0 1 -9.8112,0 v 6.7308 a 90.24,90.24 0 0 1 -25.029996,-4.9766 l 2.575774,-6.2184 a 83.52,83.52 0 0 1 -9.065058,-3.753 l -2.575723,6.2184 a 90.24,90.24 0 0 1 -21.234124,-14.183 l 4.75941,-4.7594 a 83.52,83.52 0 0 1 -6.938844,-6.9363 l -4.759314,4.7593 a 90.24,90.24 0 0 1 -14.190191,-21.2292 l 6.218468,-2.5758 a 83.52,83.52 0 0 1 -3.756253,-9.0637 l -6.218344,2.5757 a 90.24,90.24 0 0 1 -4.986768,-25.059 h 6.730754 a 83.52,83.52 0 0 1 0,-9.8112 h -6.730754 a 90.24,90.24 0 0 1 4.976558,-25.03 l 6.218469,2.5758 a 83.52,83.52 0 0 1 3.752914,-9.0651 l -6.218344,-2.5757 a 90.24,90.24 0 0 1 14.182954,-21.2341 l 4.759409,4.7594 a 83.52,83.52 0 0 1 6.936288,-6.9388 l -4.759314,-4.7594 a 90.24,90.24 0 0 1 21.229288,-14.1901 z"
         inkscape:connector-curvature="0" />
      <path
         id="path5137"
         style="fill:none;stroke:#0000ff;stroke-opacity:1"
         d="m 67.2,1122.5598 a 67.2,67.2 0 1 0 -134.4,0 67.2,67.2 0 1 0 134.4,0 z"
         inkscape:connector-curvature="0" />
    </g>
    <path
       style="opacity:1;vector-effect:none;fill:none;fill-opacity:1;stroke:#000000;stroke-width:0.12699999;stroke-linecap:butt;stroke-linejoin:miter;stroke-miterlimit:4;stroke-dasharray:none;stroke-dashoffset:0;stroke-opacity:1"
       d="m 37.101141,208.98411 v 2.87653"
       id="path6882-7"
       inkscape:connector-curvature="0"
       sodipodi:nodetypes="cc" />
    <path
       style="opacity:1;vector-effect:none;fill:none;fill-opacity:1;stroke:#000000;stroke-width:0.12699999;stroke-linecap:butt;stroke-linejoin:miter;stroke-miterlimit:4;stroke-dasharray:none;stroke-dashoffset:0;stroke-opacity:1"
       d="m 38.115718,208.98566 v 2.89152"
       id="path6884-3"
       inkscape:connector-curvature="0"
       sodipodi:nodetypes="cc" />
    <path
       sodipodi:nodetypes="cc"
       inkscape:connector-curvature="0"
       id="path6904"
       d="m 39.11643,209.0022 v 2.89152"
       style="opacity:1;vector-effect:none;fill:none;fill-opacity:1;stroke:#000000;stroke-width:0.12699999;stroke-linecap:butt;stroke-linejoin:miter;stroke-miterlimit:4;stroke-dasharray:none;stroke-dashoffset:0;stroke-opacity:1" />
  </g>
  <g
     inkscape:groupmode="layer"
     id="layer2"
     inkscape:label="2"
     style="display:inline">
    <g
       id="g5046"
       inkscape:label="0"
       transform="matrix(0.26458334,0,0,0.26458334,38.10458,-182.47805)">
      <path
         id="path5042"
         style="fill:none;stroke:#006400;stroke-opacity:1"
         d="m -34.612294,1051.8574 2.577144,6.2218 a 72,72 0 0 1 9.063564,-3.7565 l -2.577075,-6.2216 a 78.72,78.72 0 0 1 20.643061,-4.1083 v 6.7343 a 72,72 0 0 1 9.8112,0 v -6.7343 a 78.72,78.72 0 0 1 20.613949,4.0983 l -2.577144,6.2218 a 72,72 0 0 1 9.06517,3.7526 l 2.577075,-6.2216 a 78.72,78.72 0 0 1 17.490286,11.6817 l -4.761941,4.7619 a 72,72 0 0 1 6.939049,6.9361 l 4.761815,-4.7618 a 78.72,78.72 0 0 1 11.688528,17.4857 l -6.221776,2.5772 a 72,72 0 0 1 3.756521,9.0635 l 6.22161,-2.577 a 78.72,78.72 0 0 1 4.108258,20.643 h -6.734312 a 72,72 0 0 1 0,9.8112 H 78.567 a 78.72,78.72 0 0 1 -4.098275,20.614 l -6.221776,-2.5772 a 72,72 0 0 1 -3.752646,9.0652 l 6.22161,2.5771 a 78.72,78.72 0 0 1 -11.681691,17.4903 l -4.761941,-4.762 a 72,72 0 0 1 -6.936083,6.9391 l 4.761814,4.7618 a 78.72,78.72 0 0 1 -17.485718,11.6885 l -2.577144,-6.2218 a 72,72 0 0 1 -9.063564,3.7566 l 2.577075,6.2216 A 78.72,78.72 0 0 1 4.9056,1201.1268 v -6.7343 a 72,72 0 0 1 -9.8112,0 v 6.7343 a 78.72,78.72 0 0 1 -20.613949,-4.0983 l 2.577144,-6.2217 a 72,72 0 0 1 -9.06517,-3.7527 l -2.577075,6.2216 a 78.72,78.72 0 0 1 -17.490286,-11.6817 l 4.761941,-4.7619 a 72,72 0 0 1 -6.939049,-6.9361 l -4.761815,4.7618 a 78.72,78.72 0 0 1 -11.688528,-17.4857 l 6.221776,-2.5771 a 72,72 0 0 1 -3.756521,-9.0636 l -6.22161,2.5771 A 78.72,78.72 0 0 1 -78.567,1127.4654 h 6.734312 a 72,72 0 0 1 0,-9.8112 H -78.567 a 78.72,78.72 0 0 1 4.098275,-20.6139 l 6.221776,2.5771 a 72,72 0 0 1 3.752646,-9.0652 l -6.22161,-2.577 a 78.72,78.72 0 0 1 11.681691,-17.4903 l 4.761941,4.7619 a 72,72 0 0 1 6.936083,-6.939 l -4.761814,-4.7618 a 78.72,78.72 0 0 1 17.485718,-11.6886 z"
         inkscape:connector-curvature="0" />
      <path
         id="path5044"
         style="fill:none;stroke:#0000ff;stroke-opacity:1"
         d="m 60.48,1122.5598 a 60.48,60.48 0 1 0 -120.96,0 60.48,60.48 0 1 0 120.96,0 z"
         inkscape:connector-curvature="0" />
    </g>
    <path
       style="opacity:1;vector-effect:none;fill:none;fill-opacity:1;stroke:#000000;stroke-width:0.127;stroke-linecap:butt;stroke-linejoin:miter;stroke-miterlimit:4;stroke-dasharray:none;stroke-dashoffset:0;stroke-opacity:1"
       d="m 37.996,131.07655 v 1.9119"
       id="path6882"
       inkscape:connector-curvature="0"
       sodipodi:nodetypes="cc" />
    <path
       style="opacity:1;vector-effect:none;fill:none;fill-opacity:1;stroke:#000000;stroke-width:0.127;stroke-linecap:butt;stroke-linejoin:miter;stroke-miterlimit:4;stroke-dasharray:none;stroke-dashoffset:0;stroke-opacity:1"
       d="m 38.808254,131.07473 v 1.91372"
       id="path6884"
       inkscape:connector-curvature="0"
       sodipodi:nodetypes="cc" />
  </g>
  <g
     inkscape:label="1"
     inkscape:groupmode="layer"
     id="layer1"
     transform="translate(0,7.800018)"
     style="display:inline">
    <g
       id="g4718"
       inkscape:label="0"
       transform="matrix(0.26458334,0,0,0.26458334,38.123381,-266.54107)"
       style="stroke:#080000;stroke-opacity:1">
      <path
         id="path4714"
         style="fill:none;stroke:#006400;stroke-opacity:1"
         d="m -24.664111,1075.8745 2.584528,6.2396 a 46.08,46.08 0 0 1 9.063108,-3.7576 l -2.584366,-6.2393 a 52.8,52.8 0 0 1 10.695241,-2.129 v 6.7535 a 46.08,46.08 0 0 1 9.8112,0 v -6.7535 a 52.8,52.8 0 0 1 10.665766,2.1199 l -2.584528,6.2396 a 46.08,46.08 0 0 1 9.065626,3.7516 l 2.584365,-6.2392 a 52.8,52.8 0 0 1 9.056261,6.0473 l -4.775584,4.7756 a 46.08,46.08 0 0 1 6.939892,6.9353 l 4.775285,-4.7753 a 52.8,52.8 0 0 1 6.052664,9.0527 l -6.239601,2.5845 a 46.08,46.08 0 0 1 3.757622,9.0631 l 6.239211,-2.5843 a 52.8,52.8 0 0 1 2.12904,10.6952 h -6.753484 a 46.08,46.08 0 0 1 0,9.8112 h 6.753484 a 52.8,52.8 0 0 1 -2.119933,10.6658 l -6.239601,-2.5845 a 46.08,46.08 0 0 1 -3.751546,9.0656 l 6.239211,2.5843 a 52.8,52.8 0 0 1 -6.047374,9.0563 l -4.775584,-4.7756 a 46.08,46.08 0 0 1 -6.93524,6.9399 l 4.775285,4.7753 a 52.8,52.8 0 0 1 -9.052726,6.0527 l -2.584528,-6.2396 a 46.08,46.08 0 0 1 -9.063108,3.7576 l 2.584366,6.2392 a 52.8,52.8 0 0 1 -10.695241,2.129 v -6.7534 a 46.08,46.08 0 0 1 -9.8112,0 v 6.7534 a 52.8,52.8 0 0 1 -10.665766,-2.1199 l 2.584528,-6.2396 a 46.08,46.08 0 0 1 -9.065626,-3.7515 l -2.584365,6.2392 a 52.8,52.8 0 0 1 -9.056261,-6.0474 l 4.775584,-4.7756 a 46.08,46.08 0 0 1 -6.939892,-6.9352 l -4.775285,4.7753 a 52.8,52.8 0 0 1 -6.052664,-9.0528 l 6.239601,-2.5845 a 46.08,46.08 0 0 1 -3.757622,-9.0631 l -6.239211,2.5844 a 52.8,52.8 0 0 1 -2.12904,-10.6953 h 6.753484 a 46.08,46.08 0 0 1 0,-9.8112 h -6.753484 a 52.8,52.8 0 0 1 2.119933,-10.6657 l 6.239601,2.5845 a 46.08,46.08 0 0 1 3.751546,-9.0656 l -6.239211,-2.5844 a 52.8,52.8 0 0 1 6.047374,-9.0563 l 4.775584,4.7756 a 46.08,46.08 0 0 1 6.93524,-6.9399 l -4.775285,-4.7753 a 52.8,52.8 0 0 1 9.052726,-6.0526 z"
         inkscape:connector-curvature="0" />
      <path
         id="path4716"
         style="fill:none;stroke:#0000ff;stroke-opacity:1"
         d="m 33.6,1122.5598 a 33.6,33.6 0 1 0 -67.2,0 33.6,33.6 0 1 0 67.2,0 z"
         inkscape:connector-curvature="0" />
    </g>
    <path
       style="opacity:1;vector-effect:none;fill:none;fill-opacity:1;stroke:#000000;stroke-width:0.127;stroke-linecap:butt;stroke-linejoin:miter;stroke-miterlimit:4;stroke-dasharray:none;stroke-dashoffset:0;stroke-opacity:1"
       d="M 38.067977,39.916143 V 41.87819"
       id="path6880"
       inkscape:connector-curvature="0" />
  </g>
</svg>
