<?xml version="1.0" encoding="UTF-8" standalone="no"?>
<!-- Created with Inkscape (http://www.inkscape.org/) -->

<svg
   xmlns:dc="http://purl.org/dc/elements/1.1/"
   xmlns:cc="http://creativecommons.org/ns#"
   xmlns:rdf="http://www.w3.org/1999/02/22-rdf-syntax-ns#"
   xmlns:svg="http://www.w3.org/2000/svg"
   xmlns="http://www.w3.org/2000/svg"
   xmlns:sodipodi="http://sodipodi.sourceforge.net/DTD/sodipodi-0.dtd"
   xmlns:inkscape="http://www.inkscape.org/namespaces/inkscape"
   width="20in"
   height="12in"
   viewBox="0 0 508 304.80001"
   version="1.1"
   id="svg8"
   sodipodi:docname="lz127_ribs_0.11.svg"
   inkscape:version="0.92.1 r15371">
  <defs
     id="defs2">
    <marker
       style="overflow:visible"
       refY="0.0"
       refX="0.0"
       orient="auto"
       id="DistanceX">
      <path
         id="path4484"
         style="stroke:#000000; stroke-width:0.5"
         d="M 3,-3 L -3,3 M 0,-5 L  0,5" />
    </marker>
    <pattern
       y="0"
       x="0"
       width="8"
       patternUnits="userSpaceOnUse"
       id="Hatch"
       height="8">
      <path
         id="path4487"
         stroke-width="0.25"
         stroke="#000000"
         linecap="square"
         d="M8 4 l-4,4" />
      <path
         id="path4489"
         stroke-width="0.25"
         stroke="#000000"
         linecap="square"
         d="M6 2 l-4,4" />
      <path
         id="path4491"
         stroke-width="0.25"
         stroke="#000000"
         linecap="square"
         d="M4 0 l-4,4" />
    </pattern>
    <symbol
       id="*MODEL_SPACE" />
    <symbol
       id="*PAPER_SPACE" />
    <marker
       style="overflow:visible"
       refY="0.0"
       refX="0.0"
       orient="auto"
       id="DistanceX-8">
      <path
         id="path4526"
         style="stroke:#000000; stroke-width:0.5"
         d="M 3,-3 L -3,3 M 0,-5 L  0,5" />
    </marker>
    <pattern
       y="0"
       x="0"
       width="8"
       patternUnits="userSpaceOnUse"
       id="Hatch-3"
       height="8">
      <path
         id="path4529"
         stroke-width="0.25"
         stroke="#000000"
         linecap="square"
         d="M8 4 l-4,4" />
      <path
         id="path4531"
         stroke-width="0.25"
         stroke="#000000"
         linecap="square"
         d="M6 2 l-4,4" />
      <path
         id="path4533"
         stroke-width="0.25"
         stroke="#000000"
         linecap="square"
         d="M4 0 l-4,4" />
    </pattern>
    <symbol
       id="*MODEL_SPACE-7" />
    <symbol
       id="*PAPER_SPACE-7" />
    <marker
       style="overflow:visible"
       refY="0.0"
       refX="0.0"
       orient="auto"
       id="DistanceX-6">
      <path
         id="path4516"
         style="stroke:#000000; stroke-width:0.5"
         d="M 3,-3 L -3,3 M 0,-5 L  0,5" />
    </marker>
    <pattern
       y="0"
       x="0"
       width="8"
       patternUnits="userSpaceOnUse"
       id="Hatch-2"
       height="8">
      <path
         id="path4519"
         stroke-width="0.25"
         stroke="#000000"
         linecap="square"
         d="M8 4 l-4,4" />
      <path
         id="path4521"
         stroke-width="0.25"
         stroke="#000000"
         linecap="square"
         d="M6 2 l-4,4" />
      <path
         id="path4523"
         stroke-width="0.25"
         stroke="#000000"
         linecap="square"
         d="M4 0 l-4,4" />
    </pattern>
    <symbol
       id="*MODEL_SPACE-1" />
    <symbol
       id="*PAPER_SPACE-4" />
    <marker
       style="overflow:visible"
       refY="0.0"
       refX="0.0"
       orient="auto"
       id="DistanceX-89">
      <path
         id="path4570"
         style="stroke:#000000; stroke-width:0.5"
         d="M 3,-3 L -3,3 M 0,-5 L  0,5" />
    </marker>
    <pattern
       y="0"
       x="0"
       width="8"
       patternUnits="userSpaceOnUse"
       id="Hatch-5"
       height="8">
      <path
         id="path4573"
         stroke-width="0.25"
         stroke="#000000"
         linecap="square"
         d="M8 4 l-4,4" />
      <path
         id="path4575"
         stroke-width="0.25"
         stroke="#000000"
         linecap="square"
         d="M6 2 l-4,4" />
      <path
         id="path4577"
         stroke-width="0.25"
         stroke="#000000"
         linecap="square"
         d="M4 0 l-4,4" />
    </pattern>
    <symbol
       id="*MODEL_SPACE-5" />
    <symbol
       id="*PAPER_SPACE-3" />
  </defs>
  <sodipodi:namedview
     id="base"
     pagecolor="#ffffff"
     bordercolor="#666666"
     borderopacity="1.0"
     inkscape:pageopacity="0.0"
     inkscape:pageshadow="2"
     inkscape:zoom="0.7"
     inkscape:cx="839.18934"
     inkscape:cy="575.05173"
     inkscape:document-units="in"
     inkscape:current-layer="layer1"
     showgrid="false"
     inkscape:window-width="1920"
     inkscape:window-height="1057"
     inkscape:window-x="-8"
     inkscape:window-y="-8"
     inkscape:window-maximized="1"
     units="in"
     inkscape:snap-global="false"
     inkscape:measure-start="347.682,623.517"
     inkscape:measure-end="341.116,634.628" />
  <metadata
     id="metadata5">
    <rdf:RDF>
      <cc:Work
         rdf:about="">
        <dc:format>image/svg+xml</dc:format>
        <dc:type
           rdf:resource="http://purl.org/dc/dcmitype/StillImage" />
        <dc:title />
      </cc:Work>
    </rdf:RDF>
  </metadata>
  <g
     inkscape:groupmode="layer"
     id="layer2"
     inkscape:label="text"
     style="display:none">
    <g
       aria-label="bottom (x1)"
       style="font-style:normal;font-weight:normal;font-size:40px;line-height:1.25;font-family:sans-serif;letter-spacing:0px;word-spacing:0px;display:inline;fill:#787878;fill-opacity:1;stroke:none"
       id="flowRoot4546"
       transform="matrix(0.26458334,0,0,0.26458334,0,-8.3154763)">
      <path
         d="m 1613.7578,103.61523 q 0,-3.964839 -1.6406,-6.210933 -1.6211,-2.265625 -4.4727,-2.265625 -2.8515,0 -4.4922,2.265625 -1.621,2.246094 -1.621,6.210933 0,3.96485 1.621,6.23047 1.6407,2.2461 4.4922,2.2461 2.8516,0 4.4727,-2.2461 1.6406,-2.26562 1.6406,-6.23047 z m -12.2265,-7.636714 q 1.1328,-1.953125 2.8515,-2.890625 1.7383,-0.957032 4.1406,-0.957032 3.9844,0 6.4649,3.164063 2.5,3.164062 2.5,8.320308 0,5.15625 -2.5,8.32032 -2.4805,3.16406 -6.4649,3.16406 -2.4023,0 -4.1406,-0.9375 -1.7187,-0.95703 -2.8515,-2.91016 v 3.28125 h -3.6133 V 84.142578 h 3.6133 z"
         id="path4632"
         inkscape:connector-curvature="0"
         style="fill:#787878;fill-opacity:1" />
      <path
         d="m 1631.9219,95.177734 q -2.8906,0 -4.5703,2.265625 -1.6797,2.246094 -1.6797,6.171871 0,3.92579 1.6601,6.19141 1.6797,2.24609 4.5899,2.24609 2.8711,0 4.5508,-2.26562 1.6796,-2.26563 1.6796,-6.17188 0,-3.886714 -1.6796,-6.152339 -1.6797,-2.285157 -4.5508,-2.285157 z m 0,-3.046875 q 4.6875,0 7.3633,3.046875 2.6757,3.046875 2.6757,8.437496 0,5.3711 -2.6757,8.4375 -2.6758,3.04688 -7.3633,3.04688 -4.7071,0 -7.3828,-3.04688 -2.6563,-3.0664 -2.6563,-8.4375 0,-5.390621 2.6563,-8.437496 2.6757,-3.046875 7.3828,-3.046875 z"
         id="path4634"
         inkscape:connector-curvature="0"
         style="fill:#787878;fill-opacity:1" />
      <path
         d="m 1651.4531,86.447266 v 6.210937 h 7.4024 v 2.792969 h -7.4024 v 11.874998 q 0,2.67578 0.7227,3.4375 0.7422,0.76172 2.9883,0.76172 h 3.6914 v 3.00781 h -3.6914 q -4.1602,0 -5.7422,-1.54297 -1.5821,-1.5625 -1.5821,-5.66406 V 95.451172 h -2.6367 v -2.792969 h 2.6367 v -6.210937 z"
         id="path4636"
         inkscape:connector-curvature="0"
         style="fill:#787878;fill-opacity:1" />
      <path
         d="m 1667.1563,86.447266 v 6.210937 h 7.4023 v 2.792969 h -7.4023 v 11.874998 q 0,2.67578 0.7226,3.4375 0.7422,0.76172 2.9883,0.76172 h 3.6914 v 3.00781 h -3.6914 q -4.1602,0 -5.7422,-1.54297 -1.582,-1.5625 -1.582,-5.66406 V 95.451172 h -2.6367 v -2.792969 h 2.6367 v -6.210937 z"
         id="path4638"
         inkscape:connector-curvature="0"
         style="fill:#787878;fill-opacity:1" />
      <path
         d="m 1687.7813,95.177734 q -2.8907,0 -4.5704,2.265625 -1.6796,2.246094 -1.6796,6.171871 0,3.92579 1.6601,6.19141 1.6797,2.24609 4.5899,2.24609 2.871,0 4.5507,-2.26562 1.6797,-2.26563 1.6797,-6.17188 0,-3.886714 -1.6797,-6.152339 -1.6797,-2.285157 -4.5507,-2.285157 z m 0,-3.046875 q 4.6875,0 7.3632,3.046875 2.6758,3.046875 2.6758,8.437496 0,5.3711 -2.6758,8.4375 -2.6757,3.04688 -7.3632,3.04688 -4.7071,0 -7.3829,-3.04688 -2.6562,-3.0664 -2.6562,-8.4375 0,-5.390621 2.6562,-8.437496 2.6758,-3.046875 7.3829,-3.046875 z"
         id="path4640"
         inkscape:connector-curvature="0"
         style="fill:#787878;fill-opacity:1" />
      <path
         d="m 1720.7891,96.857422 q 1.3476,-2.421875 3.2226,-3.574219 1.875,-1.152344 4.4141,-1.152344 3.418,0 5.2734,2.402344 1.8555,2.382813 1.8555,6.796877 v 13.20312 h -3.6133 v -13.08593 q 0,-3.144536 -1.1133,-4.667973 -1.1133,-1.523438 -3.3984,-1.523438 -2.793,0 -4.4141,1.855469 -1.6211,1.855469 -1.6211,5.058592 v 12.36328 h -3.6132 v -13.08593 q 0,-3.164067 -1.1133,-4.667973 -1.1133,-1.523438 -3.4375,-1.523438 -2.7539,0 -4.375,1.875 -1.6211,1.855469 -1.6211,5.039061 v 12.36328 h -3.6133 V 92.658203 h 3.6133 v 3.398438 q 1.2304,-2.011719 2.9492,-2.96875 1.7187,-0.957032 4.082,-0.957032 2.3828,0 4.043,1.210938 1.6797,1.210937 2.4805,3.515625 z"
         id="path4642"
         inkscape:connector-curvature="0"
         style="fill:#787878;fill-opacity:1" />
    </g>
    <g
       transform="translate(0,-25.461887)"
       aria-label="top (x1)"
       style="font-style:normal;font-weight:normal;font-size:10.58333397px;line-height:1.25;font-family:sans-serif;letter-spacing:0px;word-spacing:0px;display:inline;fill:#787878;fill-opacity:1;stroke:none;stroke-width:0.26458335"
       id="text4556">
      <path
         d="m 428.29501,80.548085 v 1.643311 h 1.95854 v 0.738973 h -1.95854 v 3.141927 q 0,0.707967 0.19121,0.909505 0.19637,0.201538 0.79065,0.201538 h 0.97668 v 0.795817 h -0.97668 q -1.10071,0 -1.51929,-0.408243 -0.41858,-0.413412 -0.41858,-1.498617 v -3.141927 h -0.69763 v -0.738973 h 0.69763 v -1.643311 z"
         style="fill:#787878;fill-opacity:1;stroke-width:0.26458335"
         id="path4617"
         inkscape:connector-curvature="0" />
      <path
         d="m 433.75205,82.858022 q -0.76482,0 -1.20923,0.599446 -0.44442,0.594279 -0.44442,1.632976 0,1.038696 0.43925,1.638143 0.44442,0.594279 1.2144,0.594279 0.75964,0 1.20406,-0.599447 0.44441,-0.599447 0.44441,-1.632975 0,-1.028361 -0.44441,-1.627808 -0.44442,-0.604614 -1.20406,-0.604614 z m 0,-0.806153 q 1.24023,0 1.9482,0.806153 0.70796,0.806152 0.70796,2.232422 0,1.421102 -0.70796,2.232422 -0.70797,0.806152 -1.9482,0.806152 -1.24541,0 -1.95337,-0.806152 -0.7028,-0.81132 -0.7028,-2.232422 0,-1.42627 0.7028,-2.232422 0.70796,-0.806153 1.95337,-0.806153 z"
         style="fill:#787878;fill-opacity:1;stroke-width:0.26458335"
         id="path4619"
         inkscape:connector-curvature="0" />
      <path
         d="m 438.89902,87.110992 v 3.069581 H 437.943 v -7.989177 h 0.95602 v 0.878499 q 0.29972,-0.516764 0.75447,-0.764811 0.45992,-0.253215 1.09555,-0.253215 1.05419,0 1.71049,0.837159 0.66145,0.837158 0.66145,2.201416 0,1.364258 -0.66145,2.201416 -0.6563,0.837158 -1.71049,0.837158 -0.63563,0 -1.09555,-0.248047 -0.45475,-0.253214 -0.75447,-0.769979 z m 3.23494,-2.020548 q 0,-1.049032 -0.43408,-1.643311 -0.42891,-0.599447 -1.18339,-0.599447 -0.75447,0 -1.18856,0.599447 -0.42891,0.594279 -0.42891,1.643311 0,1.049031 0.42891,1.648478 0.43409,0.594279 1.18856,0.594279 0.75448,0 1.18339,-0.594279 0.43408,-0.599447 0.43408,-1.648478 z"
         style="fill:#787878;fill-opacity:1;stroke-width:0.26458335"
         id="path4621"
         inkscape:connector-curvature="0" />
    </g>
    <g
       transform="translate(0,-16.012482)"
       aria-label="side (x2)"
       style="font-style:normal;font-weight:normal;font-size:10.58333397px;line-height:1.25;font-family:sans-serif;letter-spacing:0px;word-spacing:0px;display:inline;fill:#787878;fill-opacity:1;stroke:none;stroke-width:0.26458335"
       id="text4560">
      <path
         d="m 429.91029,133.38871 v 0.89917 q -0.40308,-0.20671 -0.83716,-0.31006 -0.43408,-0.10335 -0.89917,-0.10335 -0.70797,0 -1.06453,0.21704 -0.3514,0.21704 -0.3514,0.65112 0,0.33073 0.25321,0.52193 0.25322,0.18604 1.01803,0.35657 l 0.32556,0.0724 q 1.01286,0.21704 1.4366,0.61495 0.42892,0.39274 0.42892,1.1007 0,0.80616 -0.64079,1.27641 -0.63562,0.47026 -1.75183,0.47026 -0.46509,0 -0.97152,-0.093 -0.50126,-0.0879 -1.05937,-0.26872 v -0.98185 q 0.5271,0.27389 1.0387,0.41341 0.5116,0.13436 1.01286,0.13436 0.67179,0 1.03353,-0.22738 0.36173,-0.23254 0.36173,-0.65112 0,-0.38757 -0.26355,-0.59428 -0.25838,-0.2067 -1.14205,-0.39791 l -0.33073,-0.0775 q -0.88366,-0.18604 -1.2764,-0.56844 -0.39274,-0.38758 -0.39274,-1.05937 0,-0.81649 0.57877,-1.2609 0.57878,-0.44442 1.64331,-0.44442 0.5271,0 0.99219,0.0775 0.46509,0.0775 0.85783,0.23255 z"
         style="fill:#787878;fill-opacity:1;stroke-width:0.26458335"
         id="path4600"
         inkscape:connector-curvature="0" />
      <path
         d="m 431.73963,133.21817 h 0.95085 v 5.78777 h -0.95085 z m 0,-2.25309 h 0.95085 v 1.20406 h -0.95085 z"
         style="fill:#787878;fill-opacity:1;stroke-width:0.26458335"
         id="path4602"
         inkscape:connector-curvature="0" />
      <path
         d="m 438.48341,134.09667 v -3.13159 h 0.95085 v 8.04086 h -0.95085 v -0.86817 q -0.29972,0.51677 -0.75964,0.76998 -0.45476,0.24805 -1.09554,0.24805 -1.04904,0 -1.71049,-0.83716 -0.6563,-0.83716 -0.6563,-2.20142 0,-1.36425 0.6563,-2.20141 0.66145,-0.83716 1.71049,-0.83716 0.64078,0 1.09554,0.25321 0.45992,0.24805 0.75964,0.76481 z m -3.24011,2.02055 q 0,1.04903 0.42891,1.64848 0.43408,0.59428 1.18856,0.59428 0.75448,0 1.18856,-0.59428 0.43408,-0.59945 0.43408,-1.64848 0,-1.04903 -0.43408,-1.64331 -0.43408,-0.59944 -1.18856,-0.59944 -0.75448,0 -1.18856,0.59944 -0.42891,0.59428 -0.42891,1.64331 z"
         style="fill:#787878;fill-opacity:1;stroke-width:0.26458335"
         id="path4604"
         inkscape:connector-curvature="0" />
      <path
         d="m 446.34339,135.87434 v 0.46509 h -4.37182 q 0.062,0.98185 0.58911,1.49862 0.53227,0.51159 1.47795,0.51159 0.54777,0 1.05936,-0.13435 0.51677,-0.13436 1.0232,-0.40308 v 0.89917 q -0.5116,0.21704 -1.04904,0.33073 -0.53743,0.11369 -1.09037,0.11369 -1.38493,0 -2.19625,-0.80616 -0.80615,-0.80615 -0.80615,-2.18074 0,-1.4211 0.76481,-2.25309 0.76998,-0.83716 2.07223,-0.83716 1.16788,0 1.84485,0.75447 0.68212,0.74931 0.68212,2.04122 z m -0.95084,-0.27905 q -0.0103,-0.78031 -0.43925,-1.2454 -0.42375,-0.46509 -1.12655,-0.46509 -0.79581,0 -1.27641,0.44959 -0.47542,0.44958 -0.54777,1.26607 z"
         style="fill:#787878;fill-opacity:1;stroke-width:0.26458335"
         id="path4606"
         inkscape:connector-curvature="0" />
    </g>
    <flowRoot
       xml:space="preserve"
       id="flowRoot4595"
       style="font-style:normal;font-weight:normal;font-size:40px;line-height:1.25;font-family:sans-serif;letter-spacing:0px;word-spacing:0px;display:inline;fill:#787878;fill-opacity:0.76078431;stroke:none"
       transform="scale(0.26458334)"><flowRegion
         id="flowRegion4597"
         style="fill:#787878;fill-opacity:0.76078431"><rect
           id="rect4599"
           width="270"
           height="75.714287"
           x="1597.1428"
           y="769.14288"
           style="fill:#787878;fill-opacity:0.76078431" /></flowRegion><flowPara
         id="flowPara4601">stringer</flowPara></flowRoot>  </g>
  <g
     inkscape:label="Layer 1"
     inkscape:groupmode="layer"
     id="layer1"
     transform="translate(0,7.800018)"
     style="display:inline">
    <g
       id="g4500"
       inkscape:label="0"
       transform="matrix(0.26458334,0,0,0.26458334,210.80694,-268.26955)"
       style="stroke:#000000;stroke-opacity:1">
      <path
         id="path4498"
         style="fill:none;stroke:#000000;stroke-opacity:1"
         d="m -582.77609,1087.4797 v -5.9074 h -9.8112 v 7.6154 l -35.52056,6.184 -112.86488,27.1881 H -767.037 l 6.62503,-4.9618 5.92766,-2.9638 21.9672,-8.107 24.7567,-7.2352 26.76163,-7.3224 18.04449,-4.2714 -8.01977,-14.3833 v -49.5812 h 72.25544 l 12.01029,0.7749 13.94743,1.1623 9.10457,1.0654 8.23286,1.356 4.64914,1.1623 5.13343,1.4528 5.71457,1.5497 4.55229,1.9372 6.68315,3.0026 8.136,4.2617 6.39257,4.8428 6.97372,6.2957 6.39029,6.4163 90.74979,-13.2514 99.93614,-8.3916 95.93106,-6.4844 98.13567,-4.3043 96.868178,-2.3685 99.721991,-1.516 160.484121,0.035 32.99367,0.1009 31.68199,0.1009 32.40808,0.2185 35.81305,0.4631 29.1753,0.7719 32.72572,0.9262 34.11502,1.2349 31.49079,1.2349 32.10826,2.3155 32.72573,3.2417 32.26262,4.0136 33.80629,5.4028 28.55783,6.0203 25.93359,8.3358 26.55106,10.3426 12.19496,7.5639 14.3561,8.9533 13.27553,11.7318 8.79889,13.2756 5.86594,13.5797 h -10.19682 l -12.12409,-20.2367 -11.32906,-9.3415 -17.32603,-9.8337 v -6.4062 h -9.8112 v 1.5632 l -20.68764,-8.7843 -25.31617,-7.2462 -25.36672,-6.0706 v -5.4767 h -9.8112 v 3.5674 l -27.4311,-4.0453 -32.98055,-4.3974 -15.18985,-1.1707 v -5.4971 h -9.8112 v 4.741 l -8.204,-0.6323 -31.60214,-1.9875 -26.19405,-0.7842 v -6.1448 h -9.8112 v 5.873 l -83.66624,-1.8388 v -6.9186 h -9.8112 v 6.703 l -92.41913,-1.5069 v -5.1961 h -9.8112 v 5.1435 l -90.2963,0.4881 v -5.6316 h -9.8112 v 5.6848 l -84.35758,0.4585 v -6.1433 h -9.8112 v 6.1963 l -89.682255,0.4795 v -5.7143 h -9.8112 v 5.7933 l -85.942415,0.9392 v -4.8096 h -9.8112 v 5.0377 l -91.4953,3.9565 v -4.1864 h -9.8112 v 4.7774 l -84.16006,5.5797 v -4.5864 h -9.8112 v 5.3934 l -92.17414,8.7322 v -4.5037 h -9.8112 v 5.8404 l -77.23319,11.7903 -6.45672,1.124 v -4.3072 h -9.8112 v 6.0153 z"
         inkscape:connector-curvature="0" />
    </g>
    <g
       id="g4542"
       inkscape:label="0"
       transform="matrix(0.26458334,0,0,0.26458334,210.80694,-264.24687)"
       style="stroke:#0000ff;stroke-opacity:1">
      <path
         id="path4540"
         style="fill:none;stroke:#0000ff;stroke-opacity:1"
         d="m -582.77609,1163.5473 v -5.9475 l 71.4568,12.4403 v 6.0554 h 9.8112 v -4.3473 l 6.45672,1.1241 77.23319,11.7902 v 5.8806 h 9.8112 v -4.5439 l 92.17414,8.7322 v 5.4335 h 9.8112 v -4.6265 l 84.16006,5.5797 v 4.8175 h 9.8112 v -4.2265 l 91.4953,3.9565 v 5.0779 h 9.8112 v -4.8498 l 85.942415,0.9392 v 5.8335 h 9.8112 v -5.7545 l 89.682255,0.4795 v 6.2364 h 9.8112 v -6.1834 l 84.35758,0.4585 v 5.7249 h 9.8112 v -5.6717 l 90.2963,0.4881 v 5.1836 h 9.8112 v -5.2362 l 92.41913,-1.5068 v 6.743 h 9.8112 v -6.9587 l 83.66624,-1.8388 v 5.9132 h 9.8112 v -6.185 l 26.19405,-0.7841 31.60214,-1.9876 8.204,-0.5653 v 4.7141 h 9.8112 v -5.3901 l 16.49264,-1.1364 31.67776,-4.5787 27.4311,-5.3148 v 4.8769 h 9.8112 v -6.957 l 24.37193,-5.5243 25.0432,-7.5527 21.9554,-7.9104 v 1.9299 h 9.8112 v -6.4464 l 17.32603,-9.8337 11.32906,-9.3415 12.12409,-20.2367 h 10.19682 l -5.86594,13.5797 -8.79889,13.2756 -13.27553,11.7318 -14.3561,8.9533 -12.19496,7.5639 -26.55106,10.3426 -25.93359,8.3358 -2.20536,0.1798 -3.35107,3.3082 -6.87503,21.5039 -2.5089,3.1502 -1.88517,1.6583 -1.39176,0.1929 -2.02533,2.6759 -2.09517,1.9676 -3.43703,2.0995 -4.54175,1.1706 -5.92401,-0.1393 -5.62781,-0.5374 -6.41768,-1.4431 -5.01009,-1.9341 -5.60667,-4.1689 -27.26879,0.5944 -51.47941,-1.1152 -31.09152,-2.5298 -22.20897,-4.4047 -34.11502,1.2349 -32.72572,0.9262 -29.1753,0.7719 -35.81305,0.4631 -32.40808,0.2185 -31.68199,0.1009 -32.99367,0.1009 -160.484121,0.035 -99.721991,-1.516 -96.868178,-2.3684 -98.13567,-4.3044 -95.93106,-6.4844 -99.93614,-8.3916 -90.74979,-13.2514 -8.00774,5.5758 -11.59207,5.7965 -13.76559,5.415 -15.03347,3.9384 -13.04108,2.2997 -17.02585,1.3557 -18.656,0.4273 -26.44441,-0.3585 -4.52815,4.5585 -4.89041,1.803 -8.51293,1.0449 -9.59968,-0.6141 -19.07837,-1.5976 v -43.9461 l 8.01977,-14.3833 -18.04449,-4.2714 -26.76163,-7.3224 -24.7567,-7.2352 -21.9672,-8.107 -5.92766,-2.9638 -6.62503,-4.9618 h 26.06427 l 112.86488,27.1881 35.52056,6.184 v 7.6555 z"
         inkscape:connector-curvature="0" />
    </g>
    <g
       id="g4532"
       inkscape:label="0"
       transform="matrix(0.26458334,0,0,0.26458334,194.76093,-78.419759)"
       style="stroke:#0064ff;stroke-opacity:1">
      <path
         id="path4530"
         style="fill:none;stroke:#0064ff;stroke-opacity:1"
         d="m -551.34752,874.57366 v -5.8684 h -9.8112 v 7.5765 l -35.52056,6.184 -79.65256,3.9203 26.76163,-7.3224 18.04449,-4.2714 89.87,-17.7027 72.28598,-10.9821 90.74979,-13.2515 99.93614,-8.3915 95.93106,-6.4845 98.135671,-4.3043 96.868178,-2.3684 99.721991,-1.5161 160.48412,0.035 32.99367,0.1009 31.68199,0.1009 32.40808,0.2186 35.81305,0.4631 29.1753,0.7718 32.72572,0.9262 34.11502,1.235 31.49079,1.2349 32.10826,2.3155 32.72573,3.2417 32.26262,4.0135 33.80629,5.4029 28.55783,6.0203 25.93359,8.3358 26.55106,10.3425 12.19496,7.564 14.3561,8.9533 13.27553,11.7318 8.79889,13.2755 5.86594,13.5798 h -10.19682 l -12.12409,-20.2367 -11.32906,-9.3415 -17.32603,-9.8337 v -6.3675 h -9.8112 v 1.5245 l -20.68764,-8.7843 -25.31617,-7.2462 -25.36672,-6.0707 v -5.4385 h -9.8112 v 3.5292 l -27.4311,-4.0453 -32.98055,-4.3974 -15.18985,-1.1706 v -5.4591 h -9.8112 v 4.7029 l -8.204,-0.6322 -31.60214,-1.9876 -26.19405,-0.7841 v -6.1069 h -9.8112 v 5.8351 l -83.66624,-1.8389 v -6.8806 h -9.8112 v 6.665 l -92.41913,-1.5068 v -5.1582 h -9.8112 v 5.1056 l -90.2963,0.4881 v -5.5937 h -9.8112 v 5.6469 l -84.35758,0.4585 v -6.1054 h -9.8112 v 6.1583 l -89.682254,0.4796 v -5.6765 H 6.6271062 v 5.7554 l -85.9424152,0.9393 v -4.7717 h -9.8112 v 4.9998 l -91.495301,3.9565 v -4.1484 h -9.8112 v 4.7394 l -84.16006,5.5797 v -4.5484 h -9.8112 v 5.3553 l -92.17414,8.7323 v -4.4656 h -9.8112 v 5.8023 l -77.23319,11.7902 -6.45672,1.1241 v -4.2687 h -9.8112 v 5.9768 z"
         inkscape:connector-curvature="0" />
    </g>
    <g
       id="g4586"
       inkscape:label="0"
       transform="matrix(-0.26458334,0,0,-0.26458334,208.54754,394.5367)"
       style="stroke:#006400;stroke-opacity:1">
      <path
         id="path4584"
         style="fill:none;stroke:#006400;stroke-opacity:1"
         d="m -765.5883,1127.7997 h 11.07938 l 8.96077,14.9567 11.32906,9.3415 17.32603,9.8337 v 6.4062 h 9.8112 v -1.5632 l 20.68764,8.7843 25.31617,7.2462 25.36672,6.0706 v 5.4767 h 9.8112 v -3.5674 l 27.4311,4.0454 32.98055,4.3973 15.18985,1.1707 v 5.4971 h 9.8112 v -4.741 l 8.204,0.6323 31.60214,1.9876 26.19405,0.7841 v 6.1448 h 9.8112 v -5.873 l 83.66624,1.8388 v 6.9186 h 9.8112 v -6.7029 l 92.41913,1.5068 v 5.1961 h 9.8112 v -5.1435 l 90.2963,-0.4881 v 5.6316 h 9.8112 v -5.6848 l 84.35758,-0.4585 v 6.1433 h 9.8112 v -6.1963 l 89.682255,-0.4795 v 5.7143 h 9.8112 v -5.7933 l 85.942415,-0.9392 v 4.8096 h 9.8112 v -5.0377 l 91.4953,-3.9565 v 4.1864 h 9.8112 v -4.7774 l 84.16006,-5.5797 v 4.5864 h 9.8112 v -5.3934 l 92.17414,-8.7322 v 4.5037 h 9.8112 v -5.8404 l 77.23319,-11.7902 6.45672,-1.1241 v 4.3072 h 9.8112 v -6.0153 l 71.4568,-12.4403 v 5.9074 h 9.8112 v -7.6154 l 35.52056,-6.184 90.94626,-21.9081 h 40.72152 l -5.29132,2.6456 -21.9672,8.107 -24.7567,7.2352 -26.76163,7.3224 -18.04449,4.2714 8.01977,14.3833 v 49.5812 h -72.25544 l -12.01029,-0.7749 -13.94743,-1.1623 -9.10457,-1.0654 -8.23286,-1.356 -4.64914,-1.1623 -5.13343,-1.4528 -5.71457,-1.5497 -4.55229,-1.9372 -6.68315,-3.0026 -8.136,-4.2617 -6.39257,-4.8428 -6.97372,-6.2957 -6.39029,-6.4163 -90.74979,13.2514 -99.93614,8.3916 -95.93106,6.4844 -98.13567,4.3044 -96.868178,2.3684 -99.721991,1.516 -160.484121,-0.035 -32.99367,-0.1009 -31.68199,-0.1009 -32.40808,-0.2185 -35.81305,-0.4631 -29.1753,-0.7719 -32.72572,-0.9262 -34.11502,-1.2349 -31.49079,-1.2349 -32.10826,-2.3155 -32.72573,-3.2417 -32.26262,-4.0136 -33.80629,-5.4028 -28.55783,-6.0203 -25.93359,-8.3358 -26.55106,-10.3426 -12.19496,-7.5639 -14.3561,-8.9533 -13.27553,-11.7318 -8.79889,-13.2756 z"
         inkscape:connector-curvature="0" />
    </g>
    <g
       style="stroke:#006400;stroke-opacity:1"
       transform="matrix(-0.26458334,0,0,0.26458334,208.54754,-196.28825)"
       inkscape:label="0"
       id="g4661">
      <path
         inkscape:connector-curvature="0"
         d="m -765.5883,1127.7997 h 11.07938 l 8.96077,14.9567 11.32906,9.3415 17.32603,9.8337 v 6.4062 h 9.8112 v -1.5632 l 20.68764,8.7843 25.31617,7.2462 25.36672,6.0706 v 5.4767 h 9.8112 v -3.5674 l 27.4311,4.0454 32.98055,4.3973 15.18985,1.1707 v 5.4971 h 9.8112 v -4.741 l 8.204,0.6323 31.60214,1.9876 26.19405,0.7841 v 6.1448 h 9.8112 v -5.873 l 83.66624,1.8388 v 6.9186 h 9.8112 v -6.7029 l 92.41913,1.5068 v 5.1961 h 9.8112 v -5.1435 l 90.2963,-0.4881 v 5.6316 h 9.8112 v -5.6848 l 84.35758,-0.4585 v 6.1433 h 9.8112 v -6.1963 l 89.682255,-0.4795 v 5.7143 h 9.8112 v -5.7933 l 85.942415,-0.9392 v 4.8096 h 9.8112 v -5.0377 l 91.4953,-3.9565 v 4.1864 h 9.8112 v -4.7774 l 84.16006,-5.5797 v 4.5864 h 9.8112 v -5.3934 l 92.17414,-8.7322 v 4.5037 h 9.8112 v -5.8404 l 77.23319,-11.7902 6.45672,-1.1241 v 4.3072 h 9.8112 v -6.0153 l 71.4568,-12.4403 v 5.9074 h 9.8112 v -7.6154 l 35.52056,-6.184 90.94626,-21.9081 h 40.72152 l -5.29132,2.6456 -21.9672,8.107 -24.7567,7.2352 -26.76163,7.3224 -18.04449,4.2714 8.01977,14.3833 v 49.5812 h -72.25544 l -12.01029,-0.7749 -13.94743,-1.1623 -9.10457,-1.0654 -8.23286,-1.356 -4.64914,-1.1623 -5.13343,-1.4528 -5.71457,-1.5497 -4.55229,-1.9372 -6.68315,-3.0026 -8.136,-4.2617 -6.39257,-4.8428 -6.97372,-6.2957 -6.39029,-6.4163 -90.74979,13.2514 -99.93614,8.3916 -95.93106,6.4844 -98.13567,4.3044 -96.868178,2.3684 -99.721991,1.516 -160.484121,-0.035 -32.99367,-0.1009 -31.68199,-0.1009 -32.40808,-0.2185 -35.81305,-0.4631 -29.1753,-0.7719 -32.72572,-0.9262 -34.11502,-1.2349 -31.49079,-1.2349 -32.10826,-2.3155 -32.72573,-3.2417 -32.26262,-4.0136 -33.80629,-5.4028 -28.55783,-6.0203 -25.93359,-8.3358 -26.55106,-10.3426 -12.19496,-7.5639 -14.3561,-8.9533 -13.27553,-11.7318 -8.79889,-13.2756 z"
         style="fill:none;stroke:#006400;stroke-opacity:1"
         id="path4659" />
    </g>
    <g
       style="stroke:#0064ff;stroke-opacity:1"
       transform="matrix(0.26458334,0,0,0.26458334,194.76093,-68.935996)"
       inkscape:label="0"
       id="g4665">
      <path
         inkscape:connector-curvature="0"
         d="m -551.34752,874.57366 v -5.8684 h -9.8112 v 7.5765 l -35.52056,6.184 -79.65256,3.9203 26.76163,-7.3224 18.04449,-4.2714 89.87,-17.7027 72.28598,-10.9821 90.74979,-13.2515 99.93614,-8.3915 95.93106,-6.4845 98.135671,-4.3043 96.868178,-2.3684 99.721991,-1.5161 160.48412,0.035 32.99367,0.1009 31.68199,0.1009 32.40808,0.2186 35.81305,0.4631 29.1753,0.7718 32.72572,0.9262 34.11502,1.235 31.49079,1.2349 32.10826,2.3155 32.72573,3.2417 32.26262,4.0135 33.80629,5.4029 28.55783,6.0203 25.93359,8.3358 26.55106,10.3425 12.19496,7.564 14.3561,8.9533 13.27553,11.7318 8.79889,13.2755 5.86594,13.5798 h -10.19682 l -12.12409,-20.2367 -11.32906,-9.3415 -17.32603,-9.8337 v -6.3675 h -9.8112 v 1.5245 l -20.68764,-8.7843 -25.31617,-7.2462 -25.36672,-6.0707 v -5.4385 h -9.8112 v 3.5292 l -27.4311,-4.0453 -32.98055,-4.3974 -15.18985,-1.1706 v -5.4591 h -9.8112 v 4.7029 l -8.204,-0.6322 -31.60214,-1.9876 -26.19405,-0.7841 v -6.1069 h -9.8112 v 5.8351 l -83.66624,-1.8389 v -6.8806 h -9.8112 v 6.665 l -92.41913,-1.5068 v -5.1582 h -9.8112 v 5.1056 l -90.2963,0.4881 v -5.5937 h -9.8112 v 5.6469 l -84.35758,0.4585 v -6.1054 h -9.8112 v 6.1583 l -89.682254,0.4796 v -5.6765 H 6.6271062 v 5.7554 l -85.9424152,0.9393 v -4.7717 h -9.8112 v 4.9998 l -91.495301,3.9565 v -4.1484 h -9.8112 v 4.7394 l -84.16006,5.5797 v -4.5484 h -9.8112 v 5.3553 l -92.17414,8.7323 v -4.4656 h -9.8112 v 5.8023 l -77.23319,11.7902 -6.45672,1.1241 v -4.2687 h -9.8112 v 5.9768 z"
         style="fill:none;stroke:#0064ff;stroke-opacity:1"
         id="path4663" />
    </g>
    <g
       id="g4669"
       inkscape:label="0"
       transform="matrix(0.26458334,0,0,0.26458334,194.76093,-59.452228)"
       style="stroke:#0064ff;stroke-opacity:1">
      <path
         id="path4667"
         style="fill:none;stroke:#0064ff;stroke-opacity:1"
         d="m -551.34752,874.57366 v -5.8684 h -9.8112 v 7.5765 l -35.52056,6.184 -79.65256,3.9203 26.76163,-7.3224 18.04449,-4.2714 89.87,-17.7027 72.28598,-10.9821 90.74979,-13.2515 99.93614,-8.3915 95.93106,-6.4845 98.135671,-4.3043 96.868178,-2.3684 99.721991,-1.5161 160.48412,0.035 32.99367,0.1009 31.68199,0.1009 32.40808,0.2186 35.81305,0.4631 29.1753,0.7718 32.72572,0.9262 34.11502,1.235 31.49079,1.2349 32.10826,2.3155 32.72573,3.2417 32.26262,4.0135 33.80629,5.4029 28.55783,6.0203 25.93359,8.3358 26.55106,10.3425 12.19496,7.564 14.3561,8.9533 13.27553,11.7318 8.79889,13.2755 5.86594,13.5798 h -10.19682 l -12.12409,-20.2367 -11.32906,-9.3415 -17.32603,-9.8337 v -6.3675 h -9.8112 v 1.5245 l -20.68764,-8.7843 -25.31617,-7.2462 -25.36672,-6.0707 v -5.4385 h -9.8112 v 3.5292 l -27.4311,-4.0453 -32.98055,-4.3974 -15.18985,-1.1706 v -5.4591 h -9.8112 v 4.7029 l -8.204,-0.6322 -31.60214,-1.9876 -26.19405,-0.7841 v -6.1069 h -9.8112 v 5.8351 l -83.66624,-1.8389 v -6.8806 h -9.8112 v 6.665 l -92.41913,-1.5068 v -5.1582 h -9.8112 v 5.1056 l -90.2963,0.4881 v -5.5937 h -9.8112 v 5.6469 l -84.35758,0.4585 v -6.1054 h -9.8112 v 6.1583 l -89.682254,0.4796 v -5.6765 H 6.6271062 v 5.7554 l -85.9424152,0.9393 v -4.7717 h -9.8112 v 4.9998 l -91.495301,3.9565 v -4.1484 h -9.8112 v 4.7394 l -84.16006,5.5797 v -4.5484 h -9.8112 v 5.3553 l -92.17414,8.7323 v -4.4656 h -9.8112 v 5.8023 l -77.23319,11.7902 -6.45672,1.1241 v -4.2687 h -9.8112 v 5.9768 z"
         inkscape:connector-curvature="0" />
    </g>
    <g
       style="stroke:#0064ff;stroke-opacity:1"
       transform="matrix(0.26458334,0,0,0.26458334,194.76093,-49.968463)"
       inkscape:label="0"
       id="g4673">
      <path
         inkscape:connector-curvature="0"
         d="m -551.34752,874.57366 v -5.8684 h -9.8112 v 7.5765 l -35.52056,6.184 -79.65256,3.9203 26.76163,-7.3224 18.04449,-4.2714 89.87,-17.7027 72.28598,-10.9821 90.74979,-13.2515 99.93614,-8.3915 95.93106,-6.4845 98.135671,-4.3043 96.868178,-2.3684 99.721991,-1.5161 160.48412,0.035 32.99367,0.1009 31.68199,0.1009 32.40808,0.2186 35.81305,0.4631 29.1753,0.7718 32.72572,0.9262 34.11502,1.235 31.49079,1.2349 32.10826,2.3155 32.72573,3.2417 32.26262,4.0135 33.80629,5.4029 28.55783,6.0203 25.93359,8.3358 26.55106,10.3425 12.19496,7.564 14.3561,8.9533 13.27553,11.7318 8.79889,13.2755 5.86594,13.5798 h -10.19682 l -12.12409,-20.2367 -11.32906,-9.3415 -17.32603,-9.8337 v -6.3675 h -9.8112 v 1.5245 l -20.68764,-8.7843 -25.31617,-7.2462 -25.36672,-6.0707 v -5.4385 h -9.8112 v 3.5292 l -27.4311,-4.0453 -32.98055,-4.3974 -15.18985,-1.1706 v -5.4591 h -9.8112 v 4.7029 l -8.204,-0.6322 -31.60214,-1.9876 -26.19405,-0.7841 v -6.1069 h -9.8112 v 5.8351 l -83.66624,-1.8389 v -6.8806 h -9.8112 v 6.665 l -92.41913,-1.5068 v -5.1582 h -9.8112 v 5.1056 l -90.2963,0.4881 v -5.5937 h -9.8112 v 5.6469 l -84.35758,0.4585 v -6.1054 h -9.8112 v 6.1583 l -89.682254,0.4796 v -5.6765 H 6.6271062 v 5.7554 l -85.9424152,0.9393 v -4.7717 h -9.8112 v 4.9998 l -91.495301,3.9565 v -4.1484 h -9.8112 v 4.7394 l -84.16006,5.5797 v -4.5484 h -9.8112 v 5.3553 l -92.17414,8.7323 v -4.4656 h -9.8112 v 5.8023 l -77.23319,11.7902 -6.45672,1.1241 v -4.2687 h -9.8112 v 5.9768 z"
         style="fill:none;stroke:#0064ff;stroke-opacity:1"
         id="path4671" />
    </g>
    <g
       id="g4677"
       inkscape:label="0"
       transform="matrix(0.26458334,0,0,0.26458334,194.76093,-40.484698)"
       style="stroke:#0064ff;stroke-opacity:1">
      <path
         id="path4675"
         style="fill:none;stroke:#0064ff;stroke-opacity:1"
         d="m -551.34752,874.57366 v -5.8684 h -9.8112 v 7.5765 l -35.52056,6.184 -79.65256,3.9203 26.76163,-7.3224 18.04449,-4.2714 89.87,-17.7027 72.28598,-10.9821 90.74979,-13.2515 99.93614,-8.3915 95.93106,-6.4845 98.135671,-4.3043 96.868178,-2.3684 99.721991,-1.5161 160.48412,0.035 32.99367,0.1009 31.68199,0.1009 32.40808,0.2186 35.81305,0.4631 29.1753,0.7718 32.72572,0.9262 34.11502,1.235 31.49079,1.2349 32.10826,2.3155 32.72573,3.2417 32.26262,4.0135 33.80629,5.4029 28.55783,6.0203 25.93359,8.3358 26.55106,10.3425 12.19496,7.564 14.3561,8.9533 13.27553,11.7318 8.79889,13.2755 5.86594,13.5798 h -10.19682 l -12.12409,-20.2367 -11.32906,-9.3415 -17.32603,-9.8337 v -6.3675 h -9.8112 v 1.5245 l -20.68764,-8.7843 -25.31617,-7.2462 -25.36672,-6.0707 v -5.4385 h -9.8112 v 3.5292 l -27.4311,-4.0453 -32.98055,-4.3974 -15.18985,-1.1706 v -5.4591 h -9.8112 v 4.7029 l -8.204,-0.6322 -31.60214,-1.9876 -26.19405,-0.7841 v -6.1069 h -9.8112 v 5.8351 l -83.66624,-1.8389 v -6.8806 h -9.8112 v 6.665 l -92.41913,-1.5068 v -5.1582 h -9.8112 v 5.1056 l -90.2963,0.4881 v -5.5937 h -9.8112 v 5.6469 l -84.35758,0.4585 v -6.1054 h -9.8112 v 6.1583 l -89.682254,0.4796 v -5.6765 H 6.6271062 v 5.7554 l -85.9424152,0.9393 v -4.7717 h -9.8112 v 4.9998 l -91.495301,3.9565 v -4.1484 h -9.8112 v 4.7394 l -84.16006,5.5797 v -4.5484 h -9.8112 v 5.3553 l -92.17414,8.7323 v -4.4656 h -9.8112 v 5.8023 l -77.23319,11.7902 -6.45672,1.1241 v -4.2687 h -9.8112 v 5.9768 z"
         inkscape:connector-curvature="0" />
    </g>
    <g
       style="stroke:#0064ff;stroke-opacity:1"
       transform="matrix(0.26458334,0,0,0.26458334,194.76093,-31.000925)"
       inkscape:label="0"
       id="g4681">
      <path
         inkscape:connector-curvature="0"
         d="m -551.34752,874.57366 v -5.8684 h -9.8112 v 7.5765 l -35.52056,6.184 -79.65256,3.9203 26.76163,-7.3224 18.04449,-4.2714 89.87,-17.7027 72.28598,-10.9821 90.74979,-13.2515 99.93614,-8.3915 95.93106,-6.4845 98.135671,-4.3043 96.868178,-2.3684 99.721991,-1.5161 160.48412,0.035 32.99367,0.1009 31.68199,0.1009 32.40808,0.2186 35.81305,0.4631 29.1753,0.7718 32.72572,0.9262 34.11502,1.235 31.49079,1.2349 32.10826,2.3155 32.72573,3.2417 32.26262,4.0135 33.80629,5.4029 28.55783,6.0203 25.93359,8.3358 26.55106,10.3425 12.19496,7.564 14.3561,8.9533 13.27553,11.7318 8.79889,13.2755 5.86594,13.5798 h -10.19682 l -12.12409,-20.2367 -11.32906,-9.3415 -17.32603,-9.8337 v -6.3675 h -9.8112 v 1.5245 l -20.68764,-8.7843 -25.31617,-7.2462 -25.36672,-6.0707 v -5.4385 h -9.8112 v 3.5292 l -27.4311,-4.0453 -32.98055,-4.3974 -15.18985,-1.1706 v -5.4591 h -9.8112 v 4.7029 l -8.204,-0.6322 -31.60214,-1.9876 -26.19405,-0.7841 v -6.1069 h -9.8112 v 5.8351 l -83.66624,-1.8389 v -6.8806 h -9.8112 v 6.665 l -92.41913,-1.5068 v -5.1582 h -9.8112 v 5.1056 l -90.2963,0.4881 v -5.5937 h -9.8112 v 5.6469 l -84.35758,0.4585 v -6.1054 h -9.8112 v 6.1583 l -89.682254,0.4796 v -5.6765 H 6.6271062 v 5.7554 l -85.9424152,0.9393 v -4.7717 h -9.8112 v 4.9998 l -91.495301,3.9565 v -4.1484 h -9.8112 v 4.7394 l -84.16006,5.5797 v -4.5484 h -9.8112 v 5.3553 l -92.17414,8.7323 v -4.4656 h -9.8112 v 5.8023 l -77.23319,11.7902 -6.45672,1.1241 v -4.2687 h -9.8112 v 5.9768 z"
         style="fill:none;stroke:#0064ff;stroke-opacity:1"
         id="path4679" />
    </g>
    <g
       id="g4685"
       inkscape:label="0"
       transform="matrix(0.26458334,0,0,0.26458334,194.76093,-21.517166)"
       style="stroke:#0064ff;stroke-opacity:1">
      <path
         id="path4683"
         style="fill:none;stroke:#0064ff;stroke-opacity:1"
         d="m -551.34752,874.57366 v -5.8684 h -9.8112 v 7.5765 l -35.52056,6.184 -79.65256,3.9203 26.76163,-7.3224 18.04449,-4.2714 89.87,-17.7027 72.28598,-10.9821 90.74979,-13.2515 99.93614,-8.3915 95.93106,-6.4845 98.135671,-4.3043 96.868178,-2.3684 99.721991,-1.5161 160.48412,0.035 32.99367,0.1009 31.68199,0.1009 32.40808,0.2186 35.81305,0.4631 29.1753,0.7718 32.72572,0.9262 34.11502,1.235 31.49079,1.2349 32.10826,2.3155 32.72573,3.2417 32.26262,4.0135 33.80629,5.4029 28.55783,6.0203 25.93359,8.3358 26.55106,10.3425 12.19496,7.564 14.3561,8.9533 13.27553,11.7318 8.79889,13.2755 5.86594,13.5798 h -10.19682 l -12.12409,-20.2367 -11.32906,-9.3415 -17.32603,-9.8337 v -6.3675 h -9.8112 v 1.5245 l -20.68764,-8.7843 -25.31617,-7.2462 -25.36672,-6.0707 v -5.4385 h -9.8112 v 3.5292 l -27.4311,-4.0453 -32.98055,-4.3974 -15.18985,-1.1706 v -5.4591 h -9.8112 v 4.7029 l -8.204,-0.6322 -31.60214,-1.9876 -26.19405,-0.7841 v -6.1069 h -9.8112 v 5.8351 l -83.66624,-1.8389 v -6.8806 h -9.8112 v 6.665 l -92.41913,-1.5068 v -5.1582 h -9.8112 v 5.1056 l -90.2963,0.4881 v -5.5937 h -9.8112 v 5.6469 l -84.35758,0.4585 v -6.1054 h -9.8112 v 6.1583 l -89.682254,0.4796 v -5.6765 H 6.6271062 v 5.7554 l -85.9424152,0.9393 v -4.7717 h -9.8112 v 4.9998 l -91.495301,3.9565 v -4.1484 h -9.8112 v 4.7394 l -84.16006,5.5797 v -4.5484 h -9.8112 v 5.3553 l -92.17414,8.7323 v -4.4656 h -9.8112 v 5.8023 l -77.23319,11.7902 -6.45672,1.1241 v -4.2687 h -9.8112 v 5.9768 z"
         inkscape:connector-curvature="0" />
    </g>
    <g
       style="stroke:#0064ff;stroke-opacity:1"
       transform="matrix(0.26458334,0,0,0.26458334,194.76093,-12.033397)"
       inkscape:label="0"
       id="g4689">
      <path
         inkscape:connector-curvature="0"
         d="m -551.34752,874.57366 v -5.8684 h -9.8112 v 7.5765 l -35.52056,6.184 -79.65256,3.9203 26.76163,-7.3224 18.04449,-4.2714 89.87,-17.7027 72.28598,-10.9821 90.74979,-13.2515 99.93614,-8.3915 95.93106,-6.4845 98.135671,-4.3043 96.868178,-2.3684 99.721991,-1.5161 160.48412,0.035 32.99367,0.1009 31.68199,0.1009 32.40808,0.2186 35.81305,0.4631 29.1753,0.7718 32.72572,0.9262 34.11502,1.235 31.49079,1.2349 32.10826,2.3155 32.72573,3.2417 32.26262,4.0135 33.80629,5.4029 28.55783,6.0203 25.93359,8.3358 26.55106,10.3425 12.19496,7.564 14.3561,8.9533 13.27553,11.7318 8.79889,13.2755 5.86594,13.5798 h -10.19682 l -12.12409,-20.2367 -11.32906,-9.3415 -17.32603,-9.8337 v -6.3675 h -9.8112 v 1.5245 l -20.68764,-8.7843 -25.31617,-7.2462 -25.36672,-6.0707 v -5.4385 h -9.8112 v 3.5292 l -27.4311,-4.0453 -32.98055,-4.3974 -15.18985,-1.1706 v -5.4591 h -9.8112 v 4.7029 l -8.204,-0.6322 -31.60214,-1.9876 -26.19405,-0.7841 v -6.1069 h -9.8112 v 5.8351 l -83.66624,-1.8389 v -6.8806 h -9.8112 v 6.665 l -92.41913,-1.5068 v -5.1582 h -9.8112 v 5.1056 l -90.2963,0.4881 v -5.5937 h -9.8112 v 5.6469 l -84.35758,0.4585 v -6.1054 h -9.8112 v 6.1583 l -89.682254,0.4796 v -5.6765 H 6.6271062 v 5.7554 l -85.9424152,0.9393 v -4.7717 h -9.8112 v 4.9998 l -91.495301,3.9565 v -4.1484 h -9.8112 v 4.7394 l -84.16006,5.5797 v -4.5484 h -9.8112 v 5.3553 l -92.17414,8.7323 v -4.4656 h -9.8112 v 5.8023 l -77.23319,11.7902 -6.45672,1.1241 v -4.2687 h -9.8112 v 5.9768 z"
         style="fill:none;stroke:#0064ff;stroke-opacity:1"
         id="path4687" />
    </g>
    <g
       style="stroke:#0064ff;stroke-opacity:1"
       transform="matrix(0.26458334,0,0,0.26458334,194.76093,-2.5496261)"
       inkscape:label="0"
       id="g4581">
      <path
         inkscape:connector-curvature="0"
         d="m -551.34752,874.57366 v -5.8684 h -9.8112 v 7.5765 l -35.52056,6.184 -79.65256,3.9203 26.76163,-7.3224 18.04449,-4.2714 89.87,-17.7027 72.28598,-10.9821 90.74979,-13.2515 99.93614,-8.3915 95.93106,-6.4845 98.135671,-4.3043 96.868178,-2.3684 99.721991,-1.5161 160.48412,0.035 32.99367,0.1009 31.68199,0.1009 32.40808,0.2186 35.81305,0.4631 29.1753,0.7718 32.72572,0.9262 34.11502,1.235 31.49079,1.2349 32.10826,2.3155 32.72573,3.2417 32.26262,4.0135 33.80629,5.4029 28.55783,6.0203 25.93359,8.3358 26.55106,10.3425 12.19496,7.564 14.3561,8.9533 13.27553,11.7318 8.79889,13.2755 5.86594,13.5798 h -10.19682 l -12.12409,-20.2367 -11.32906,-9.3415 -17.32603,-9.8337 v -6.3675 h -9.8112 v 1.5245 l -20.68764,-8.7843 -25.31617,-7.2462 -25.36672,-6.0707 v -5.4385 h -9.8112 v 3.5292 l -27.4311,-4.0453 -32.98055,-4.3974 -15.18985,-1.1706 v -5.4591 h -9.8112 v 4.7029 l -8.204,-0.6322 -31.60214,-1.9876 -26.19405,-0.7841 v -6.1069 h -9.8112 v 5.8351 l -83.66624,-1.8389 v -6.8806 h -9.8112 v 6.665 l -92.41913,-1.5068 v -5.1582 h -9.8112 v 5.1056 l -90.2963,0.4881 v -5.5937 h -9.8112 v 5.6469 l -84.35758,0.4585 v -6.1054 h -9.8112 v 6.1583 l -89.682254,0.4796 v -5.6765 H 6.6271062 v 5.7554 l -85.9424152,0.9393 v -4.7717 h -9.8112 v 4.9998 l -91.495301,3.9565 v -4.1484 h -9.8112 v 4.7394 l -84.16006,5.5797 v -4.5484 h -9.8112 v 5.3553 l -92.17414,8.7323 v -4.4656 h -9.8112 v 5.8023 l -77.23319,11.7902 -6.45672,1.1241 v -4.2687 h -9.8112 v 5.9768 z"
         style="fill:none;stroke:#0064ff;stroke-opacity:1"
         id="path4579" />
    </g>
    <g
       id="g4585"
       inkscape:label="0"
       transform="matrix(0.26458334,0,0,0.26458334,194.76093,6.9341389)"
       style="stroke:#0064ff;stroke-opacity:1">
      <path
         id="path4583"
         style="fill:none;stroke:#0064ff;stroke-opacity:1"
         d="m -551.34752,874.57366 v -5.8684 h -9.8112 v 7.5765 l -35.52056,6.184 -79.65256,3.9203 26.76163,-7.3224 18.04449,-4.2714 89.87,-17.7027 72.28598,-10.9821 90.74979,-13.2515 99.93614,-8.3915 95.93106,-6.4845 98.135671,-4.3043 96.868178,-2.3684 99.721991,-1.5161 160.48412,0.035 32.99367,0.1009 31.68199,0.1009 32.40808,0.2186 35.81305,0.4631 29.1753,0.7718 32.72572,0.9262 34.11502,1.235 31.49079,1.2349 32.10826,2.3155 32.72573,3.2417 32.26262,4.0135 33.80629,5.4029 28.55783,6.0203 25.93359,8.3358 26.55106,10.3425 12.19496,7.564 14.3561,8.9533 13.27553,11.7318 8.79889,13.2755 5.86594,13.5798 h -10.19682 l -12.12409,-20.2367 -11.32906,-9.3415 -17.32603,-9.8337 v -6.3675 h -9.8112 v 1.5245 l -20.68764,-8.7843 -25.31617,-7.2462 -25.36672,-6.0707 v -5.4385 h -9.8112 v 3.5292 l -27.4311,-4.0453 -32.98055,-4.3974 -15.18985,-1.1706 v -5.4591 h -9.8112 v 4.7029 l -8.204,-0.6322 -31.60214,-1.9876 -26.19405,-0.7841 v -6.1069 h -9.8112 v 5.8351 l -83.66624,-1.8389 v -6.8806 h -9.8112 v 6.665 l -92.41913,-1.5068 v -5.1582 h -9.8112 v 5.1056 l -90.2963,0.4881 v -5.5937 h -9.8112 v 5.6469 l -84.35758,0.4585 v -6.1054 h -9.8112 v 6.1583 l -89.682254,0.4796 v -5.6765 H 6.6271062 v 5.7554 l -85.9424152,0.9393 v -4.7717 h -9.8112 v 4.9998 l -91.495301,3.9565 v -4.1484 h -9.8112 v 4.7394 l -84.16006,5.5797 v -4.5484 h -9.8112 v 5.3553 l -92.17414,8.7323 v -4.4656 h -9.8112 v 5.8023 l -77.23319,11.7902 -6.45672,1.1241 v -4.2687 h -9.8112 v 5.9768 z"
         inkscape:connector-curvature="0" />
    </g>
    <g
       style="stroke:#0064ff;stroke-opacity:1"
       transform="matrix(0.26458334,0,0,0.26458334,194.76093,16.417906)"
       inkscape:label="0"
       id="g4589">
      <path
         inkscape:connector-curvature="0"
         d="m -551.34752,874.57366 v -5.8684 h -9.8112 v 7.5765 l -35.52056,6.184 -79.65256,3.9203 26.76163,-7.3224 18.04449,-4.2714 89.87,-17.7027 72.28598,-10.9821 90.74979,-13.2515 99.93614,-8.3915 95.93106,-6.4845 98.135671,-4.3043 96.868178,-2.3684 99.721991,-1.5161 160.48412,0.035 32.99367,0.1009 31.68199,0.1009 32.40808,0.2186 35.81305,0.4631 29.1753,0.7718 32.72572,0.9262 34.11502,1.235 31.49079,1.2349 32.10826,2.3155 32.72573,3.2417 32.26262,4.0135 33.80629,5.4029 28.55783,6.0203 25.93359,8.3358 26.55106,10.3425 12.19496,7.564 14.3561,8.9533 13.27553,11.7318 8.79889,13.2755 5.86594,13.5798 h -10.19682 l -12.12409,-20.2367 -11.32906,-9.3415 -17.32603,-9.8337 v -6.3675 h -9.8112 v 1.5245 l -20.68764,-8.7843 -25.31617,-7.2462 -25.36672,-6.0707 v -5.4385 h -9.8112 v 3.5292 l -27.4311,-4.0453 -32.98055,-4.3974 -15.18985,-1.1706 v -5.4591 h -9.8112 v 4.7029 l -8.204,-0.6322 -31.60214,-1.9876 -26.19405,-0.7841 v -6.1069 h -9.8112 v 5.8351 l -83.66624,-1.8389 v -6.8806 h -9.8112 v 6.665 l -92.41913,-1.5068 v -5.1582 h -9.8112 v 5.1056 l -90.2963,0.4881 v -5.5937 h -9.8112 v 5.6469 l -84.35758,0.4585 v -6.1054 h -9.8112 v 6.1583 l -89.682254,0.4796 v -5.6765 H 6.6271062 v 5.7554 l -85.9424152,0.9393 v -4.7717 h -9.8112 v 4.9998 l -91.495301,3.9565 v -4.1484 h -9.8112 v 4.7394 l -84.16006,5.5797 v -4.5484 h -9.8112 v 5.3553 l -92.17414,8.7323 v -4.4656 h -9.8112 v 5.8023 l -77.23319,11.7902 -6.45672,1.1241 v -4.2687 h -9.8112 v 5.9768 z"
         style="fill:none;stroke:#0064ff;stroke-opacity:1"
         id="path4587" />
    </g>
    <g
       id="g4593"
       inkscape:label="0"
       transform="matrix(0.26458334,0,0,0.26458334,194.76093,25.901671)"
       style="stroke:#0064ff;stroke-opacity:1">
      <path
         id="path4591"
         style="fill:none;stroke:#0064ff;stroke-opacity:1"
         d="m -551.34752,874.57366 v -5.8684 h -9.8112 v 7.5765 l -35.52056,6.184 -79.65256,3.9203 26.76163,-7.3224 18.04449,-4.2714 89.87,-17.7027 72.28598,-10.9821 90.74979,-13.2515 99.93614,-8.3915 95.93106,-6.4845 98.135671,-4.3043 96.868178,-2.3684 99.721991,-1.5161 160.48412,0.035 32.99367,0.1009 31.68199,0.1009 32.40808,0.2186 35.81305,0.4631 29.1753,0.7718 32.72572,0.9262 34.11502,1.235 31.49079,1.2349 32.10826,2.3155 32.72573,3.2417 32.26262,4.0135 33.80629,5.4029 28.55783,6.0203 25.93359,8.3358 26.55106,10.3425 12.19496,7.564 14.3561,8.9533 13.27553,11.7318 8.79889,13.2755 5.86594,13.5798 h -10.19682 l -12.12409,-20.2367 -11.32906,-9.3415 -17.32603,-9.8337 v -6.3675 h -9.8112 v 1.5245 l -20.68764,-8.7843 -25.31617,-7.2462 -25.36672,-6.0707 v -5.4385 h -9.8112 v 3.5292 l -27.4311,-4.0453 -32.98055,-4.3974 -15.18985,-1.1706 v -5.4591 h -9.8112 v 4.7029 l -8.204,-0.6322 -31.60214,-1.9876 -26.19405,-0.7841 v -6.1069 h -9.8112 v 5.8351 l -83.66624,-1.8389 v -6.8806 h -9.8112 v 6.665 l -92.41913,-1.5068 v -5.1582 h -9.8112 v 5.1056 l -90.2963,0.4881 v -5.5937 h -9.8112 v 5.6469 l -84.35758,0.4585 v -6.1054 h -9.8112 v 6.1583 l -89.682254,0.4796 v -5.6765 H 6.6271062 v 5.7554 l -85.9424152,0.9393 v -4.7717 h -9.8112 v 4.9998 l -91.495301,3.9565 v -4.1484 h -9.8112 v 4.7394 l -84.16006,5.5797 v -4.5484 h -9.8112 v 5.3553 l -92.17414,8.7323 v -4.4656 h -9.8112 v 5.8023 l -77.23319,11.7902 -6.45672,1.1241 v -4.2687 h -9.8112 v 5.9768 z"
         inkscape:connector-curvature="0" />
    </g>
  </g>
</svg>
